<svg width="24" height="24" viewBox="0 0 24 24" fill="none" xmlns="http://www.w3.org/2000/svg">
<path fill-rule="evenodd" clip-rule="evenodd" d="M12.888 4.54629L12.4735 4.13094C12.2146 3.8729 12.2146 3.45224 12.4735 3.1942C12.7315 2.93527 13.1522 2.93527 13.4102 3.1942L13.982 3.76508C14.1888 3.97276 14.3054 4.2529 14.3054 4.54629C14.3054 4.83969 14.1888 5.11983 13.982 5.3275L13.4102 5.89839C13.1522 6.15732 12.7315 6.15732 12.4735 5.89839C12.2146 5.64034 12.2146 5.21969 12.4735 4.96164L12.888 4.54629Z" fill="currentColor"/>
<path fill-rule="evenodd" clip-rule="evenodd" d="M10.3452 4.54629L10.7597 4.96164C11.0186 5.21969 11.0186 5.64034 10.7597 5.89839C10.5016 6.15732 10.081 6.15732 9.82294 5.89839L9.25118 5.3275C9.04439 5.11983 8.92773 4.83969 8.92773 4.54629C8.92773 4.2529 9.04439 3.97276 9.25118 3.76508L9.82294 3.1942C10.081 2.93527 10.5016 2.93527 10.7597 3.1942C11.0186 3.45224 11.0186 3.8729 10.7597 4.13094L10.3452 4.54629Z" fill="currentColor"/>
<path fill-rule="evenodd" clip-rule="evenodd" d="M16.4068 10.3971C16.1046 10.6021 15.6919 10.5225 15.4869 10.2194C15.2818 9.9172 15.3614 9.5045 15.6645 9.29948L16.7364 8.57306L17.15 6.19938C17.1739 6.06506 17.2375 5.94133 17.3347 5.84501L18.2184 4.96129C18.4765 4.70236 18.8971 4.70236 19.1552 4.96129C19.4141 5.21933 19.4141 5.63999 19.1552 5.89803L18.4199 6.63329L17.994 9.07855C17.9631 9.25529 17.8614 9.41259 17.713 9.51334L16.4068 10.3971Z" fill="currentColor"/>
<path fill-rule="evenodd" clip-rule="evenodd" d="M7.56966 9.29948C7.87278 9.5045 7.95231 9.9172 7.74729 10.2194C7.54227 10.5225 7.12957 10.6021 6.82734 10.3971L5.5212 9.51334C5.37273 9.41259 5.2711 9.25529 5.24017 9.07855L4.81422 6.63417L4.07896 5.89803C3.82003 5.63999 3.82003 5.21933 4.07896 4.96129C4.33701 4.70236 4.75766 4.70236 5.01571 4.96129L5.89943 5.84501C5.99664 5.94133 6.06027 6.06506 6.08413 6.19938L6.49771 8.57306L7.56966 9.29948Z" fill="currentColor"/>
<path fill-rule="evenodd" clip-rule="evenodd" d="M16.5473 12.165C16.2442 11.96 16.1647 11.5473 16.3697 11.2451C16.5747 10.9419 16.9874 10.8624 17.2896 11.0674L18.5958 11.9512C18.7442 12.0519 18.8459 12.2092 18.8768 12.3859L19.3027 14.8303L20.038 15.5665C20.2969 15.8245 20.2969 16.2452 20.038 16.5032C19.78 16.7621 19.3593 16.7621 19.1013 16.5032L18.2175 15.6195C18.1203 15.5232 18.0567 15.3994 18.0328 15.2651L17.6193 12.8914L16.5473 12.165Z" fill="currentColor"/>
<path fill-rule="evenodd" clip-rule="evenodd" d="M5.94257 11.0674C6.2448 10.8624 6.6575 10.9419 6.86253 11.2451C7.06755 11.5473 6.98801 11.96 6.6849 12.165L5.61294 12.8914L5.19936 15.2651C5.1755 15.3994 5.11187 15.5232 5.01466 15.6195L4.13094 16.5032C3.8729 16.7621 3.45224 16.7621 3.1942 16.5032C2.93527 16.2452 2.93527 15.8245 3.1942 15.5665L3.92945 14.8312L4.35541 12.3859C4.38634 12.2092 4.48797 12.0519 4.63643 11.9512L5.94257 11.0674Z" fill="currentColor"/>
<path fill-rule="evenodd" clip-rule="evenodd" d="M16.4355 17.834C16.174 17.5786 16.1695 17.1589 16.4249 16.8973C16.6812 16.6357 17.101 16.6304 17.3626 16.8867L18.2657 17.7704C18.4266 17.9268 18.4964 18.154 18.4522 18.374L18.0801 20.236L18.7129 20.8687C18.9718 21.1268 18.9718 21.5474 18.7129 21.8055C18.4548 22.0644 18.0342 22.0644 17.7761 21.8055L16.8924 20.9218C16.7351 20.7653 16.6671 20.5409 16.7113 20.3235L17.0824 18.4668L16.4355 17.834Z" fill="currentColor"/>
<path fill-rule="evenodd" clip-rule="evenodd" d="M5.8707 16.8867C6.13228 16.6304 6.55205 16.6357 6.80832 16.8973C7.06372 17.1589 7.0593 17.5786 6.79772 17.834L6.15084 18.4668L6.522 20.3235C6.56618 20.5409 6.49814 20.7653 6.34084 20.9218L5.45711 21.8055C5.19907 22.0644 4.77842 22.0644 4.52037 21.8055C4.26144 21.5474 4.26144 21.1268 4.52037 20.8687L5.15311 20.2351L4.78107 18.374C4.73688 18.154 4.8067 17.9268 4.96753 17.7704L5.8707 16.8867Z" fill="currentColor"/>
<path fill-rule="evenodd" clip-rule="evenodd" d="M6.72373 9.61889L7.2522 8.03438C7.46252 7.40252 8.05285 6.97656 8.71918 6.97656H14.5146C15.1809 6.97656 15.7713 7.40252 15.9816 8.03438L16.5383 9.70284L15.7554 10.1306C13.0061 11.2008 10.2569 11.1999 7.50759 10.1412C7.50671 10.1412 7.18415 9.92554 6.72373 9.61889ZM17.088 10.9135L17.3054 11.3483C17.4919 11.7213 17.5794 12.1348 17.559 12.5511L17.3399 17.1597C17.2109 19.8639 14.9848 21.9919 12.2797 21.9998V12.2453C13.6123 12.1711 14.945 11.8733 16.2776 11.3492C16.3033 11.3395 16.3289 11.3271 16.3528 11.3139L17.088 10.9135ZM10.9541 21.9998C8.24904 21.9919 6.02294 19.8639 5.89392 17.1597L5.67476 12.5511C5.65443 12.1348 5.74192 11.7213 5.92838 11.3483L6.17848 10.849L6.83066 11.2838C6.87043 11.3103 6.91285 11.3324 6.95704 11.3492C8.2888 11.8715 9.62146 12.1702 10.9541 12.2444V21.9998Z" fill="currentColor"/>
<path fill-rule="evenodd" clip-rule="evenodd" d="M8.41016 6.11211C8.48704 5.91681 8.60369 5.73742 8.75569 5.5863L9.12155 5.22044C9.41141 4.92969 9.80467 4.76709 10.2147 4.76709H13.0179C13.4279 4.76709 13.8212 4.92969 14.111 5.22044L14.4769 5.5863C14.6289 5.73742 14.7456 5.91681 14.8224 6.11211C14.7208 6.09886 14.6183 6.09267 14.514 6.09267H8.71858C8.6143 6.09267 8.51178 6.09886 8.41016 6.11211Z" fill="currentColor"/>
</svg>
