<svg width="227" height="24" viewBox="0 0 227 24" fill="none" xmlns="http://www.w3.org/2000/svg">
<g clip-path="url(#clip0_37_56)">
<path d="M23.0297 15.5897C23.8298 14.276 25.3077 13.5312 26.8432 13.6679L28.3629 13.8034C29.8984 13.9401 31.3763 13.1953 32.1764 11.8815L39.3056 0.165283L46.874 0.169922L38.6723 13.6474C38.122 14.5506 37.106 15.0627 36.0503 14.9687L34.5306 14.8335C32.5153 14.654 30.5756 15.6313 29.5255 17.3556L25.5431 23.9023L17.9746 23.8976L23.0297 15.5897Z" fill="url(#paint0_linear_37_56)"/>
<path d="M15.4207 13.4919C16.2208 12.1782 17.6987 11.4333 19.2343 11.5701L20.754 11.7055C22.2895 11.8423 23.7674 11.0974 24.5675 9.78371L30.4226 0.159668L37.9912 0.164307L31.0632 11.5496C30.5131 12.4528 29.4971 12.9649 28.4414 12.8709L26.7652 12.7217C24.8458 12.5508 22.9985 13.4816 21.9984 15.1239L16.6604 23.8966L9.0918 23.892L15.4207 13.4919Z" fill="url(#paint1_linear_37_56)"/>
<path d="M7.87603 11.3436C8.6761 10.0298 10.1542 9.28507 11.6898 9.42183L13.2092 9.5573C14.7448 9.69407 16.2226 8.94927 17.0227 7.63547L21.573 0.154297L29.1412 0.158935L23.5185 9.40133C22.9684 10.3046 21.9524 10.817 20.8967 10.7229L19.3773 10.5872C17.3618 10.4077 15.4219 11.3852 14.3718 13.1095L7.81043 23.8913L0.242188 23.8866L7.87603 11.3436Z" fill="url(#paint2_linear_37_56)"/>
<path d="M225.826 8.97466H214.992C214.911 8.97466 214.83 9.00166 214.749 9.05566C214.668 9.10966 214.628 9.16366 214.628 9.21766L214.364 10.6757C214.324 10.8377 214.418 10.9187 214.648 10.9187H223.194C223.477 10.9187 223.747 10.9592 224.004 11.0402C224.26 11.1212 224.476 11.2562 224.652 11.4452C224.841 11.6342 224.976 11.8772 225.057 12.1742C225.138 12.4712 225.138 12.8425 225.057 13.288L224.429 16.9128C224.388 17.1018 224.294 17.3043 224.145 17.5203C223.997 17.7228 223.821 17.9118 223.619 18.0873C223.416 18.2629 223.2 18.4114 222.971 18.5329C222.741 18.6409 222.525 18.6949 222.323 18.6949H209.383L209.889 15.7788H220.703C220.919 15.7788 221.047 15.6978 221.088 15.5358L221.331 14.0778C221.344 14.0238 221.317 13.9698 221.25 13.9158C221.196 13.8618 221.128 13.8348 221.047 13.8348H212.339C212.069 13.8213 211.813 13.7673 211.57 13.6728C211.34 13.5783 211.145 13.4433 210.983 13.2677C210.821 13.0787 210.706 12.8357 210.638 12.5387C210.571 12.2417 210.578 11.884 210.659 11.4655L211.286 7.86086C211.327 7.67186 211.421 7.47613 211.57 7.27363C211.732 7.05759 211.914 6.86186 212.117 6.68636C212.333 6.49736 212.555 6.34883 212.785 6.24083C213.014 6.11933 213.224 6.05859 213.413 6.05859H226.332L225.826 8.97466Z" fill="white"/>
<path d="M194.126 11.3237H204.96C205.176 11.3237 205.298 11.2427 205.325 11.0807L205.669 9.21766C205.669 9.16366 205.642 9.10966 205.588 9.05566C205.534 9.00166 205.466 8.97466 205.385 8.97466H194.551L195.058 6.05859H207.998C208.2 6.05859 208.396 6.11933 208.585 6.24083C208.774 6.34883 208.936 6.49059 209.071 6.66609C209.219 6.84159 209.327 7.03736 209.395 7.25336C209.476 7.45586 209.503 7.65163 209.476 7.84063L208.767 11.8502C208.686 12.2822 208.551 12.6535 208.362 12.964C208.187 13.2745 207.971 13.5243 207.714 13.7133C207.471 13.9023 207.201 14.044 206.904 14.1385C206.621 14.2195 206.337 14.26 206.054 14.26H197.204L196.414 18.6949H192.83L194.126 11.3237Z" fill="white"/>
<path d="M191.534 18.6949H187.727L187.059 16.9938H179.647L178.392 18.6949H174.564L183.495 6.05859H187.059L191.534 18.6949ZM186.127 14.0575L184.609 9.90616L181.632 14.0575H186.127Z" fill="white"/>
<path d="M159.016 18.6949L160.312 11.3237H170.66C170.876 11.3237 170.997 11.2427 171.024 11.0807L171.368 9.21766C171.368 9.16366 171.341 9.10966 171.287 9.05566C171.233 9.00166 171.166 8.97466 171.085 8.97466H160.737L161.243 6.05859H173.717C173.906 6.05859 174.095 6.11933 174.284 6.24083C174.473 6.34883 174.635 6.49059 174.77 6.66609C174.919 6.84159 175.034 7.03736 175.115 7.25336C175.196 7.45586 175.223 7.65163 175.196 7.84063L174.487 11.8502C174.406 12.2822 174.237 12.6535 173.981 12.964C173.738 13.2745 173.434 13.531 173.069 13.7335C172.718 13.9225 172.334 14.0643 171.915 14.1588C171.51 14.2398 171.105 14.2803 170.7 14.2803L174.77 18.6949H169.789L165.617 14.2803H163.369L162.6 18.6949H159.016Z" fill="white"/>
<path d="M147.411 18.6949L146.358 15.7991L144.293 18.6949H140.729L136.273 6.05859H140.121L143.219 14.746L144.9 12.3362L143.017 6.05859H146.966L149.882 14.827L156.078 6.05859H159.926L150.975 18.6949H147.411Z" fill="white"/>
<path d="M120.16 8.32663C120.227 7.92163 120.362 7.57736 120.565 7.29386C120.781 7.01036 121.03 6.78086 121.314 6.60536C121.611 6.41636 121.928 6.28133 122.266 6.20033C122.617 6.10583 122.968 6.05859 123.319 6.05859H132.553C132.877 6.05859 133.187 6.10583 133.484 6.20033C133.795 6.29483 134.065 6.44336 134.294 6.64586C134.537 6.83486 134.713 7.07109 134.821 7.35463C134.942 7.63813 134.969 7.96213 134.902 8.32663L133.484 16.4268C133.417 16.7913 133.275 17.1153 133.059 17.3988C132.843 17.6823 132.587 17.9253 132.29 18.1279C131.993 18.3169 131.669 18.4586 131.318 18.5531C130.98 18.6476 130.649 18.6949 130.325 18.6949H121.091C120.74 18.6949 120.409 18.6544 120.099 18.5734C119.788 18.4789 119.518 18.3439 119.289 18.1684C119.073 17.9793 118.911 17.7431 118.803 17.4596C118.695 17.1761 118.675 16.8318 118.742 16.4268L120.16 8.32663ZM130.001 15.7788L131.216 8.97466H123.622L122.407 15.7788H130.001Z" fill="white"/>
<path d="M103.079 11.3237H113.913C114.129 11.3237 114.251 11.2427 114.278 11.0807L114.622 9.21766C114.622 9.16366 114.595 9.10966 114.541 9.05566C114.487 9.00166 114.419 8.97466 114.338 8.97466H103.504L104.011 6.05859H116.951C117.153 6.05859 117.349 6.11933 117.538 6.24083C117.727 6.34883 117.889 6.49059 118.024 6.66609C118.173 6.84159 118.281 7.03736 118.348 7.25336C118.429 7.45586 118.456 7.65163 118.429 7.84063L117.72 11.8502C117.639 12.2822 117.504 12.6535 117.315 12.964C117.14 13.2745 116.924 13.5243 116.667 13.7133C116.424 13.9023 116.154 14.044 115.857 14.1385C115.574 14.2195 115.29 14.26 115.007 14.26H106.157L105.368 18.6949H101.783L103.079 11.3237Z" fill="white"/>
<path d="M85.7051 18.6949L87.0011 11.3237H97.3491C97.5651 11.3237 97.6867 11.2427 97.7137 11.0807L98.0577 9.21766C98.0577 9.16366 98.0307 9.10966 97.9767 9.05566C97.9227 9.00166 97.8554 8.97466 97.7744 8.97466H87.4264L87.9327 6.05859H100.407C100.596 6.05859 100.785 6.11933 100.974 6.24083C101.163 6.34883 101.325 6.49059 101.46 6.66609C101.608 6.84159 101.723 7.03736 101.804 7.25336C101.885 7.45586 101.912 7.65163 101.885 7.84063L101.176 11.8502C101.095 12.2822 100.927 12.6535 100.67 12.964C100.427 13.2745 100.123 13.531 99.7591 13.7335C99.4081 13.9225 99.0231 14.0643 98.6047 14.1588C98.1997 14.2398 97.7947 14.2803 97.3897 14.2803L101.46 18.6949H96.4784L92.3067 14.2803H90.0591L89.2894 18.6949H85.7051Z" fill="white"/>
<path d="M84.4094 18.6949H80.6025L79.9341 16.9938H72.5225L71.2668 18.6949H67.4395L76.3701 6.05859H79.9341L84.4094 18.6949ZM79.0025 14.0575L77.4838 9.90616L74.5071 14.0575H79.0025Z" fill="white"/>
<path d="M53.4937 8.32663C53.561 7.92163 53.696 7.57736 53.8987 7.29386C54.1147 7.01036 54.3643 6.78086 54.648 6.60536C54.945 6.41636 55.262 6.28133 55.5997 6.20033C55.9507 6.10583 56.3017 6.05859 56.6527 6.05859H65.887C66.211 6.05859 66.5213 6.10583 66.8183 6.20033C67.129 6.29483 67.399 6.44336 67.6283 6.64586C67.8713 6.83486 68.047 7.07109 68.155 7.35463C68.2763 7.63813 68.3033 7.96213 68.236 8.32663L67.8713 10.4529H64.287L64.5503 8.97466H56.9563L55.7413 15.7788H63.3353L63.5987 14.3208H67.183L66.8183 16.4268C66.751 16.7913 66.609 17.1153 66.393 17.3988C66.177 17.6823 65.9207 17.9253 65.6237 18.1279C65.3267 18.3169 65.0027 18.4586 64.6517 18.5531C64.314 18.6476 63.9833 18.6949 63.6593 18.6949H54.425C54.074 18.6949 53.7433 18.6544 53.433 18.5734C53.1223 18.4789 52.8523 18.3439 52.6227 18.1684C52.4067 17.9793 52.2447 17.7431 52.1367 17.4596C52.0287 17.1761 52.0087 16.8318 52.076 16.4268L53.4937 8.32663Z" fill="white"/>
</g>
<defs>
<linearGradient id="paint0_linear_37_56" x1="24.4446" y1="0.154415" x2="19.023" y2="23.9022" gradientUnits="userSpaceOnUse">
<stop stop-color="#25D735"/>
<stop offset="0.450347" stop-color="#15B623"/>
<stop offset="0.543831" stop-color="#5CE067"/>
<stop offset="1" stop-color="#15B623"/>
</linearGradient>
<linearGradient id="paint1_linear_37_56" x1="24.4445" y1="0.154244" x2="19.0229" y2="23.9021" gradientUnits="userSpaceOnUse">
<stop stop-color="#25D735"/>
<stop offset="0.450347" stop-color="#15B623"/>
<stop offset="0.543831" stop-color="#5CE067"/>
<stop offset="1" stop-color="#15B623"/>
</linearGradient>
<linearGradient id="paint2_linear_37_56" x1="24.4449" y1="0.154297" x2="19.0233" y2="23.9021" gradientUnits="userSpaceOnUse">
<stop stop-color="#25D735"/>
<stop offset="0.450347" stop-color="#15B623"/>
<stop offset="0.543831" stop-color="#5CE067"/>
<stop offset="1" stop-color="#15B623"/>
</linearGradient>
<clipPath id="clip0_37_56">
<rect width="226.333" height="24" fill="white"/>
</clipPath>
</defs>
</svg>
