<svg width="24" height="24" viewBox="0 0 24 24" fill="none" xmlns="http://www.w3.org/2000/svg">
<path d="M21.375 6.375C20.9606 6.375 20.625 6.71062 20.625 7.125C20.625 7.53844 20.2884 7.875 19.875 7.875H4.125C3.71156 7.875 3.375 7.53844 3.375 7.125C3.375 6.71062 3.03938 6.375 2.625 6.375C1.1775 6.375 0 7.5525 0 9V15C0 16.4475 1.1775 17.625 2.625 17.625H5.4375C6.26292 17.625 7.04142 17.2364 7.5375 16.575C7.74891 16.2933 8.085 16.125 8.4375 16.125C16.1628 16.125 15.7308 16.077 16.0659 16.2436C16.2211 16.3214 16.358 16.4358 16.4625 16.575C16.9552 17.2327 17.7403 17.625 18.5625 17.625H21.375C22.8225 17.625 24 16.4475 24 15V9C24 7.5525 22.8225 6.375 21.375 6.375ZM20.5289 13.125H18.6905C18.3464 13.125 18.0413 12.9183 17.933 12.6122L17.6667 11.8622C17.4942 11.3766 17.8791 10.875 18.4242 10.875H20.2627C20.6067 10.875 20.9119 11.0817 21.0202 11.3878L21.2864 12.1378C21.4589 12.6234 21.0741 13.125 20.5289 13.125ZM15 13.875H9C8.58562 13.875 8.25 13.5394 8.25 13.125C8.25 12.7106 8.58562 12.375 9 12.375H15C15.4144 12.375 15.75 12.7106 15.75 13.125C15.75 13.5394 15.4144 13.875 15 13.875ZM3.47109 13.125C2.92594 13.125 2.54109 12.6234 2.71359 12.1378L2.97984 11.3878C3.08812 11.0817 3.39328 10.875 3.73734 10.875H5.57578C6.12094 10.875 6.50578 11.3766 6.33328 11.8622L6.06703 12.6122C5.95875 12.9183 5.65359 13.125 5.30953 13.125H3.47109Z" fill="currentColor"/>
</svg>
