<svg width="24" height="24" viewBox="0 0 24 24" fill="none" xmlns="http://www.w3.org/2000/svg">
<path fill-rule="evenodd" clip-rule="evenodd" d="M3.45786 11.1541L1.90886 7.66814C1.63286 7.04714 1.72086 6.32414 2.13886 5.78714L5.11286 1.96214C5.57486 1.36814 6.35186 1.11414 7.07586 1.32114L9.49986 2.01414C10.2109 2.21714 10.7319 2.82514 10.8239 3.55914L11.2399 6.89014C11.2859 7.25114 11.2229 7.61814 11.0599 7.94414L9.79086 10.4811C9.55086 10.9621 9.11086 11.3151 8.58886 11.4451L5.59086 12.1951C4.72186 12.4121 3.82186 11.9731 3.45786 11.1541Z" fill="currentColor"/>
<path fill-rule="evenodd" clip-rule="evenodd" d="M21.7767 14.3389C22.4217 15.3069 22.4077 16.5709 21.7407 17.5239L19.3687 20.9129C18.9777 21.4699 18.3997 21.8679 17.7397 22.0329L15.2087 22.6659C14.4577 22.8539 13.6617 22.7239 13.0077 22.3089L9.57775 20.1249C8.39075 19.3699 7.94075 17.8559 8.52275 16.5749L9.92975 13.4799C10.3057 12.6529 11.0557 12.0579 11.9467 11.8789L17.3187 10.8049C18.4407 10.5809 19.5877 11.0549 20.2227 12.0069L21.7767 14.3389ZM14.3907 15.3049L16.5767 14.8679C17.1027 14.7629 17.6397 14.9849 17.9377 15.4309L18.4467 16.1949C18.6767 16.5399 19.1427 16.6329 19.4867 16.4029C19.8307 16.1739 19.9247 15.7079 19.6947 15.3629L19.1857 14.5989C18.5507 13.6469 17.4047 13.1719 16.2827 13.3969L14.0957 13.8339C13.6907 13.9149 13.4267 14.3109 13.5077 14.7169C13.5887 15.1229 13.9847 15.3859 14.3907 15.3049Z" fill="currentColor"/>
<path fill-rule="evenodd" clip-rule="evenodd" d="M14.8622 8.55509L13.8972 6.30309C13.5802 5.56409 13.7872 4.70609 14.4042 4.19109L16.4582 2.47909C17.0132 2.01709 17.7882 1.92709 18.4342 2.25009L20.2452 3.15609C21.0072 3.53709 21.4022 4.39609 21.1962 5.22209L20.5102 7.96409C20.3312 8.68009 19.7362 9.21709 19.0042 9.32209L16.7892 9.63809C15.9762 9.75409 15.1862 9.31009 14.8622 8.55509Z" fill="currentColor"/>
<path fill-rule="evenodd" clip-rule="evenodd" d="M2.41414 18.9239L1.86014 17.6319C1.62314 17.0779 1.77714 16.4339 2.24014 16.0479L3.41914 15.0659C3.83514 14.7189 4.41714 14.6519 4.90114 14.8939L5.94014 15.4139C6.51214 15.6989 6.80814 16.3429 6.65314 16.9629L6.25914 18.5359C6.12514 19.0739 5.67914 19.4759 5.13014 19.5549L3.85914 19.7359C3.24914 19.8229 2.65714 19.4899 2.41414 18.9239Z" fill="currentColor"/>
</svg>
