<svg width="24" height="24" viewBox="0 0 24 24" fill="none" xmlns="http://www.w3.org/2000/svg">
<path d="M20.8534 3.14634C21.0234 3.31634 21.0484 3.58384 20.9124 3.78234C18.6724 7.05384 16.1909 10.0158 13.1034 13.1033C10.0159 16.1908 7.05385 18.6723 3.78185 20.9123C3.58335 21.0483 3.31585 21.0238 3.14585 20.8533C2.97585 20.6833 2.95085 20.4158 3.08685 20.2173C5.32685 16.9453 7.80835 13.9838 10.8959 10.8963C13.9834 7.80884 16.9454 5.32734 20.2174 3.08734C20.4159 2.95134 20.6829 2.97584 20.8534 3.14634ZM21.7299 7.07934C18.8549 8.91984 16.2859 11.0063 13.6459 13.6463C11.0059 16.2863 8.91935 18.8548 7.07885 21.7303C6.95235 21.9283 6.98035 22.1873 7.14635 22.3533C7.31235 22.5193 7.57185 22.5473 7.76935 22.4208C10.6449 20.5798 13.2134 18.4928 15.8529 15.8533C18.4924 13.2138 20.5794 10.6453 22.4204 7.76984C22.5469 7.57184 22.5189 7.31284 22.3529 7.14684C22.1869 6.98034 21.9279 6.95234 21.7299 7.07934ZM2.26935 16.9208C5.14435 15.0803 7.71335 12.9938 10.3534 10.3538C12.9934 7.71384 15.0799 5.14484 16.9204 2.26984C17.0469 2.07184 17.0189 1.81284 16.8529 1.64684C16.6869 1.48084 16.4274 1.45284 16.2299 1.57934C13.3544 3.41984 10.7859 5.50684 8.14585 8.14634C5.50585 10.7858 3.41935 13.3548 1.57885 16.2303C1.45235 16.4283 1.48035 16.6873 1.64635 16.8533C1.81235 17.0193 2.07135 17.0473 2.26935 16.9208Z" fill="currentColor"/>
</svg>
