<svg width="24" height="24" viewBox="0 0 24 24" fill="none" xmlns="http://www.w3.org/2000/svg">
<path d="M18.1238 9.3967C17.8733 8.96795 17.5146 8.61246 17.0837 8.36574C16.6527 8.11902 16.1645 7.98971 15.668 7.99074V8.80556C15.9409 8.80542 16.211 8.86013 16.4624 8.96643C16.7137 9.07273 16.9412 9.22845 17.1312 9.42434C17.3212 9.62024 17.4699 9.85231 17.5684 10.1068C17.667 10.3613 17.7135 10.633 17.705 10.9057C17.671 11.4469 17.4296 11.9541 17.031 12.3218C16.6325 12.6895 16.1075 12.8893 15.5653 12.8796H14.6283C14.2907 12.8796 13.9576 12.9565 13.6542 13.1045C13.3508 13.2524 13.0852 13.4676 12.8774 13.7337C12.6697 13.9998 12.5253 14.3097 12.4554 14.6399C12.3854 14.9701 12.3916 15.3119 12.4735 15.6394L12.7587 16.7801C12.837 17.0929 12.8328 17.4206 12.7467 17.7312C12.6606 18.0419 12.4954 18.325 12.2673 18.5528L11.93 18.8901C11.8116 18.4314 11.5476 18.0235 11.1775 17.7278C10.7981 17.4259 10.4919 17.0422 10.2818 16.6053C10.0717 16.1683 9.96312 15.6895 9.96426 15.2047C9.9634 14.3723 9.63237 13.5742 9.0438 12.9856C8.45523 12.3969 7.65719 12.0658 6.82478 12.0648C6.21306 12.0737 5.61867 11.8616 5.15082 11.4674C4.68297 11.0732 4.37308 10.5234 4.27808 9.919C4.23577 9.57531 4.26697 9.22655 4.36961 8.89583C4.47225 8.5651 4.64399 8.25996 4.87345 8.00061C5.10291 7.74126 5.38485 7.53362 5.7006 7.39145C6.01636 7.24928 6.35872 7.17581 6.705 7.17593V6.36111C6.04187 6.36239 5.39491 6.56592 4.85048 6.94452C4.69804 6.5403 4.63988 6.10661 4.68046 5.67651C4.72104 5.2464 4.85927 4.83124 5.08462 4.46266C5.30997 4.09408 5.6165 3.78181 5.98083 3.54966C6.34516 3.3175 6.75769 3.17159 7.18696 3.12304C7.13852 3.38483 7.11356 3.65043 7.11241 3.91667H7.92722C7.92722 2.94421 8.31353 2.01158 9.00117 1.32394C9.6888 0.636308 10.6214 0.25 11.5939 0.25C12.5664 0.25 13.499 0.636308 14.1866 1.32394C14.8742 2.01158 15.2606 2.94421 15.2606 3.91667H16.0754C16.0743 3.50585 16.0164 3.09716 15.9034 2.70219C15.9609 2.69933 16.0179 2.69444 16.0754 2.69444C16.8606 2.69362 17.6252 2.94513 18.2566 3.41187C18.888 3.87862 19.3527 4.5359 19.5822 5.28679C19.8117 6.03769 19.7939 6.84246 19.5313 7.58243C19.2687 8.32241 18.7753 8.95843 18.1238 9.3967Z" fill="currentColor"/>
<path d="M11.9999 21.0278C11.6395 21.0285 11.2894 21.1489 11.0048 21.3701C10.7202 21.5913 10.5172 21.9009 10.4277 22.2501H13.5721C13.4826 21.9009 13.2796 21.5913 12.995 21.3701C12.7104 21.1489 12.3604 21.0285 11.9999 21.0278Z" fill="currentColor"/>
</svg>
