<svg xmlns="http://www.w3.org/2000/svg" style="display:none">

<symbol id="beetle" width="24" height="24" viewBox="0 0 24 24"  xmlns="http://www.w3.org/2000/svg">
    <path fill-rule="evenodd" clip-rule="evenodd" d="M12.888 4.54629L12.4735 4.13094C12.2146 3.8729 12.2146 3.45224 12.4735 3.1942C12.7315 2.93527 13.1522 2.93527 13.4102 3.1942L13.982 3.76508C14.1888 3.97276 14.3054 4.2529 14.3054 4.54629C14.3054 4.83969 14.1888 5.11983 13.982 5.3275L13.4102 5.89839C13.1522 6.15732 12.7315 6.15732 12.4735 5.89839C12.2146 5.64034 12.2146 5.21969 12.4735 4.96164L12.888 4.54629Z" />
    <path fill-rule="evenodd" clip-rule="evenodd" d="M10.3452 4.54629L10.7597 4.96164C11.0186 5.21969 11.0186 5.64034 10.7597 5.89839C10.5016 6.15732 10.081 6.15732 9.82294 5.89839L9.25118 5.3275C9.04439 5.11983 8.92773 4.83969 8.92773 4.54629C8.92773 4.2529 9.04439 3.97276 9.25118 3.76508L9.82294 3.1942C10.081 2.93527 10.5016 2.93527 10.7597 3.1942C11.0186 3.45224 11.0186 3.8729 10.7597 4.13094L10.3452 4.54629Z" />
    <path fill-rule="evenodd" clip-rule="evenodd" d="M16.4068 10.3971C16.1046 10.6021 15.6919 10.5225 15.4869 10.2194C15.2818 9.9172 15.3614 9.5045 15.6645 9.29948L16.7364 8.57306L17.15 6.19938C17.1739 6.06506 17.2375 5.94133 17.3347 5.84501L18.2184 4.96129C18.4765 4.70236 18.8971 4.70236 19.1552 4.96129C19.4141 5.21933 19.4141 5.63999 19.1552 5.89803L18.4199 6.63329L17.994 9.07855C17.9631 9.25529 17.8614 9.41259 17.713 9.51334L16.4068 10.3971Z" />
    <path fill-rule="evenodd" clip-rule="evenodd" d="M7.56966 9.29948C7.87278 9.5045 7.95231 9.9172 7.74729 10.2194C7.54227 10.5225 7.12957 10.6021 6.82734 10.3971L5.5212 9.51334C5.37273 9.41259 5.2711 9.25529 5.24017 9.07855L4.81422 6.63417L4.07896 5.89803C3.82003 5.63999 3.82003 5.21933 4.07896 4.96129C4.33701 4.70236 4.75766 4.70236 5.01571 4.96129L5.89943 5.84501C5.99664 5.94133 6.06027 6.06506 6.08413 6.19938L6.49771 8.57306L7.56966 9.29948Z" />
    <path fill-rule="evenodd" clip-rule="evenodd" d="M16.5473 12.165C16.2442 11.96 16.1647 11.5473 16.3697 11.2451C16.5747 10.9419 16.9874 10.8624 17.2896 11.0674L18.5958 11.9512C18.7442 12.0519 18.8459 12.2092 18.8768 12.3859L19.3027 14.8303L20.038 15.5665C20.2969 15.8245 20.2969 16.2452 20.038 16.5032C19.78 16.7621 19.3593 16.7621 19.1013 16.5032L18.2175 15.6195C18.1203 15.5232 18.0567 15.3994 18.0328 15.2651L17.6193 12.8914L16.5473 12.165Z" />
    <path fill-rule="evenodd" clip-rule="evenodd" d="M5.94257 11.0674C6.2448 10.8624 6.6575 10.9419 6.86253 11.2451C7.06755 11.5473 6.98801 11.96 6.6849 12.165L5.61294 12.8914L5.19936 15.2651C5.1755 15.3994 5.11187 15.5232 5.01466 15.6195L4.13094 16.5032C3.8729 16.7621 3.45224 16.7621 3.1942 16.5032C2.93527 16.2452 2.93527 15.8245 3.1942 15.5665L3.92945 14.8312L4.35541 12.3859C4.38634 12.2092 4.48797 12.0519 4.63643 11.9512L5.94257 11.0674Z" />
    <path fill-rule="evenodd" clip-rule="evenodd" d="M16.4355 17.834C16.174 17.5786 16.1695 17.1589 16.4249 16.8973C16.6812 16.6357 17.101 16.6304 17.3626 16.8867L18.2657 17.7704C18.4266 17.9268 18.4964 18.154 18.4522 18.374L18.0801 20.236L18.7129 20.8687C18.9718 21.1268 18.9718 21.5474 18.7129 21.8055C18.4548 22.0644 18.0342 22.0644 17.7761 21.8055L16.8924 20.9218C16.7351 20.7653 16.6671 20.5409 16.7113 20.3235L17.0824 18.4668L16.4355 17.834Z" />
    <path fill-rule="evenodd" clip-rule="evenodd" d="M5.8707 16.8867C6.13228 16.6304 6.55205 16.6357 6.80832 16.8973C7.06372 17.1589 7.0593 17.5786 6.79772 17.834L6.15084 18.4668L6.522 20.3235C6.56618 20.5409 6.49814 20.7653 6.34084 20.9218L5.45711 21.8055C5.19907 22.0644 4.77842 22.0644 4.52037 21.8055C4.26144 21.5474 4.26144 21.1268 4.52037 20.8687L5.15311 20.2351L4.78107 18.374C4.73688 18.154 4.8067 17.9268 4.96753 17.7704L5.8707 16.8867Z" />
    <path fill-rule="evenodd" clip-rule="evenodd" d="M6.72373 9.61889L7.2522 8.03438C7.46252 7.40252 8.05285 6.97656 8.71918 6.97656H14.5146C15.1809 6.97656 15.7713 7.40252 15.9816 8.03438L16.5383 9.70284L15.7554 10.1306C13.0061 11.2008 10.2569 11.1999 7.50759 10.1412C7.50671 10.1412 7.18415 9.92554 6.72373 9.61889ZM17.088 10.9135L17.3054 11.3483C17.4919 11.7213 17.5794 12.1348 17.559 12.5511L17.3399 17.1597C17.2109 19.8639 14.9848 21.9919 12.2797 21.9998V12.2453C13.6123 12.1711 14.945 11.8733 16.2776 11.3492C16.3033 11.3395 16.3289 11.3271 16.3528 11.3139L17.088 10.9135ZM10.9541 21.9998C8.24904 21.9919 6.02294 19.8639 5.89392 17.1597L5.67476 12.5511C5.65443 12.1348 5.74192 11.7213 5.92838 11.3483L6.17848 10.849L6.83066 11.2838C6.87043 11.3103 6.91285 11.3324 6.95704 11.3492C8.2888 11.8715 9.62146 12.1702 10.9541 12.2444V21.9998Z" />
    <path fill-rule="evenodd" clip-rule="evenodd" d="M8.41016 6.11211C8.48704 5.91681 8.60369 5.73742 8.75569 5.5863L9.12155 5.22044C9.41141 4.92969 9.80467 4.76709 10.2147 4.76709H13.0179C13.4279 4.76709 13.8212 4.92969 14.111 5.22044L14.4769 5.5863C14.6289 5.73742 14.7456 5.91681 14.8224 6.11211C14.7208 6.09886 14.6183 6.09267 14.514 6.09267H8.71858C8.6143 6.09267 8.51178 6.09886 8.41016 6.11211Z" />
</symbol>

<symbol id="rear" width="24" height="24" viewBox="0 0 24 24"  xmlns="http://www.w3.org/2000/svg">
    <path d="M21.375 6.375C20.9606 6.375 20.625 6.71062 20.625 7.125C20.625 7.53844 20.2884 7.875 19.875 7.875H4.125C3.71156 7.875 3.375 7.53844 3.375 7.125C3.375 6.71062 3.03938 6.375 2.625 6.375C1.1775 6.375 0 7.5525 0 9V15C0 16.4475 1.1775 17.625 2.625 17.625H5.4375C6.26292 17.625 7.04142 17.2364 7.5375 16.575C7.74891 16.2933 8.085 16.125 8.4375 16.125C16.1628 16.125 15.7308 16.077 16.0659 16.2436C16.2211 16.3214 16.358 16.4358 16.4625 16.575C16.9552 17.2327 17.7403 17.625 18.5625 17.625H21.375C22.8225 17.625 24 16.4475 24 15V9C24 7.5525 22.8225 6.375 21.375 6.375ZM20.5289 13.125H18.6905C18.3464 13.125 18.0413 12.9183 17.933 12.6122L17.6667 11.8622C17.4942 11.3766 17.8791 10.875 18.4242 10.875H20.2627C20.6067 10.875 20.9119 11.0817 21.0202 11.3878L21.2864 12.1378C21.4589 12.6234 21.0741 13.125 20.5289 13.125ZM15 13.875H9C8.58562 13.875 8.25 13.5394 8.25 13.125C8.25 12.7106 8.58562 12.375 9 12.375H15C15.4144 12.375 15.75 12.7106 15.75 13.125C15.75 13.5394 15.4144 13.875 15 13.875ZM3.47109 13.125C2.92594 13.125 2.54109 12.6234 2.71359 12.1378L2.97984 11.3878C3.08812 11.0817 3.39328 10.875 3.73734 10.875H5.57578C6.12094 10.875 6.50578 11.3766 6.33328 11.8622L6.06703 12.6122C5.95875 12.9183 5.65359 13.125 5.30953 13.125H3.47109Z" />
</symbol>


<symbol id="rock" width="24" height="24" viewBox="0 0 24 24"  xmlns="http://www.w3.org/2000/svg">
    <path fill-rule="evenodd" clip-rule="evenodd" d="M3.45786 11.1541L1.90886 7.66814C1.63286 7.04714 1.72086 6.32414 2.13886 5.78714L5.11286 1.96214C5.57486 1.36814 6.35186 1.11414 7.07586 1.32114L9.49986 2.01414C10.2109 2.21714 10.7319 2.82514 10.8239 3.55914L11.2399 6.89014C11.2859 7.25114 11.2229 7.61814 11.0599 7.94414L9.79086 10.4811C9.55086 10.9621 9.11086 11.3151 8.58886 11.4451L5.59086 12.1951C4.72186 12.4121 3.82186 11.9731 3.45786 11.1541Z" />
    <path fill-rule="evenodd" clip-rule="evenodd" d="M21.7767 14.3389C22.4217 15.3069 22.4077 16.5709 21.7407 17.5239L19.3687 20.9129C18.9777 21.4699 18.3997 21.8679 17.7397 22.0329L15.2087 22.6659C14.4577 22.8539 13.6617 22.7239 13.0077 22.3089L9.57775 20.1249C8.39075 19.3699 7.94075 17.8559 8.52275 16.5749L9.92975 13.4799C10.3057 12.6529 11.0557 12.0579 11.9467 11.8789L17.3187 10.8049C18.4407 10.5809 19.5877 11.0549 20.2227 12.0069L21.7767 14.3389ZM14.3907 15.3049L16.5767 14.8679C17.1027 14.7629 17.6397 14.9849 17.9377 15.4309L18.4467 16.1949C18.6767 16.5399 19.1427 16.6329 19.4867 16.4029C19.8307 16.1739 19.9247 15.7079 19.6947 15.3629L19.1857 14.5989C18.5507 13.6469 17.4047 13.1719 16.2827 13.3969L14.0957 13.8339C13.6907 13.9149 13.4267 14.3109 13.5077 14.7169C13.5887 15.1229 13.9847 15.3859 14.3907 15.3049Z" />
    <path fill-rule="evenodd" clip-rule="evenodd" d="M14.8622 8.55509L13.8972 6.30309C13.5802 5.56409 13.7872 4.70609 14.4042 4.19109L16.4582 2.47909C17.0132 2.01709 17.7882 1.92709 18.4342 2.25009L20.2452 3.15609C21.0072 3.53709 21.4022 4.39609 21.1962 5.22209L20.5102 7.96409C20.3312 8.68009 19.7362 9.21709 19.0042 9.32209L16.7892 9.63809C15.9762 9.75409 15.1862 9.31009 14.8622 8.55509Z" />
    <path fill-rule="evenodd" clip-rule="evenodd" d="M2.41414 18.9239L1.86014 17.6319C1.62314 17.0779 1.77714 16.4339 2.24014 16.0479L3.41914 15.0659C3.83514 14.7189 4.41714 14.6519 4.90114 14.8939L5.94014 15.4139C6.51214 15.6989 6.80814 16.3429 6.65314 16.9629L6.25914 18.5359C6.12514 19.0739 5.67914 19.4759 5.13014 19.5549L3.85914 19.7359C3.24914 19.8229 2.65714 19.4899 2.41414 18.9239Z" />
</symbol>


<symbol id="scratch" width="24" height="24" viewBox="0 0 24 24"  xmlns="http://www.w3.org/2000/svg">
    <path d="M20.8534 3.14634C21.0234 3.31634 21.0484 3.58384 20.9124 3.78234C18.6724 7.05384 16.1909 10.0158 13.1034 13.1033C10.0159 16.1908 7.05385 18.6723 3.78185 20.9123C3.58335 21.0483 3.31585 21.0238 3.14585 20.8533C2.97585 20.6833 2.95085 20.4158 3.08685 20.2173C5.32685 16.9453 7.80835 13.9838 10.8959 10.8963C13.9834 7.80884 16.9454 5.32734 20.2174 3.08734C20.4159 2.95134 20.6829 2.97584 20.8534 3.14634ZM21.7299 7.07934C18.8549 8.91984 16.2859 11.0063 13.6459 13.6463C11.0059 16.2863 8.91935 18.8548 7.07885 21.7303C6.95235 21.9283 6.98035 22.1873 7.14635 22.3533C7.31235 22.5193 7.57185 22.5473 7.76935 22.4208C10.6449 20.5798 13.2134 18.4928 15.8529 15.8533C18.4924 13.2138 20.5794 10.6453 22.4204 7.76984C22.5469 7.57184 22.5189 7.31284 22.3529 7.14684C22.1869 6.98034 21.9279 6.95234 21.7299 7.07934ZM2.26935 16.9208C5.14435 15.0803 7.71335 12.9938 10.3534 10.3538C12.9934 7.71384 15.0799 5.14484 16.9204 2.26984C17.0469 2.07184 17.0189 1.81284 16.8529 1.64684C16.6869 1.48084 16.4274 1.45284 16.2299 1.57934C13.3544 3.41984 10.7859 5.50684 8.14585 8.14634C5.50585 10.7858 3.41935 13.3548 1.57885 16.2303C1.45235 16.4283 1.48035 16.6873 1.64635 16.8533C1.81235 17.0193 2.07135 17.0473 2.26935 16.9208Z" />
</symbol>


<symbol id="smoke" width="24" height="24" viewBox="0 0 24 24"  xmlns="http://www.w3.org/2000/svg">
    <path d="M18.1238 9.3967C17.8733 8.96795 17.5146 8.61246 17.0837 8.36574C16.6527 8.11902 16.1645 7.98971 15.668 7.99074V8.80556C15.9409 8.80542 16.211 8.86013 16.4624 8.96643C16.7137 9.07273 16.9412 9.22845 17.1312 9.42434C17.3212 9.62024 17.4699 9.85231 17.5684 10.1068C17.667 10.3613 17.7135 10.633 17.705 10.9057C17.671 11.4469 17.4296 11.9541 17.031 12.3218C16.6325 12.6895 16.1075 12.8893 15.5653 12.8796H14.6283C14.2907 12.8796 13.9576 12.9565 13.6542 13.1045C13.3508 13.2524 13.0852 13.4676 12.8774 13.7337C12.6697 13.9998 12.5253 14.3097 12.4554 14.6399C12.3854 14.9701 12.3916 15.3119 12.4735 15.6394L12.7587 16.7801C12.837 17.0929 12.8328 17.4206 12.7467 17.7312C12.6606 18.0419 12.4954 18.325 12.2673 18.5528L11.93 18.8901C11.8116 18.4314 11.5476 18.0235 11.1775 17.7278C10.7981 17.4259 10.4919 17.0422 10.2818 16.6053C10.0717 16.1683 9.96312 15.6895 9.96426 15.2047C9.9634 14.3723 9.63237 13.5742 9.0438 12.9856C8.45523 12.3969 7.65719 12.0658 6.82478 12.0648C6.21306 12.0737 5.61867 11.8616 5.15082 11.4674C4.68297 11.0732 4.37308 10.5234 4.27808 9.919C4.23577 9.57531 4.26697 9.22655 4.36961 8.89583C4.47225 8.5651 4.64399 8.25996 4.87345 8.00061C5.10291 7.74126 5.38485 7.53362 5.7006 7.39145C6.01636 7.24928 6.35872 7.17581 6.705 7.17593V6.36111C6.04187 6.36239 5.39491 6.56592 4.85048 6.94452C4.69804 6.5403 4.63988 6.10661 4.68046 5.67651C4.72104 5.2464 4.85927 4.83124 5.08462 4.46266C5.30997 4.09408 5.6165 3.78181 5.98083 3.54966C6.34516 3.3175 6.75769 3.17159 7.18696 3.12304C7.13852 3.38483 7.11356 3.65043 7.11241 3.91667H7.92722C7.92722 2.94421 8.31353 2.01158 9.00117 1.32394C9.6888 0.636308 10.6214 0.25 11.5939 0.25C12.5664 0.25 13.499 0.636308 14.1866 1.32394C14.8742 2.01158 15.2606 2.94421 15.2606 3.91667H16.0754C16.0743 3.50585 16.0164 3.09716 15.9034 2.70219C15.9609 2.69933 16.0179 2.69444 16.0754 2.69444C16.8606 2.69362 17.6252 2.94513 18.2566 3.41187C18.888 3.87862 19.3527 4.5359 19.5822 5.28679C19.8117 6.03769 19.7939 6.84246 19.5313 7.58243C19.2687 8.32241 18.7753 8.95843 18.1238 9.3967Z" />
    <path d="M11.9999 21.0278C11.6395 21.0285 11.2894 21.1489 11.0048 21.3701C10.7202 21.5913 10.5172 21.9009 10.4277 22.2501H13.5721C13.4826 21.9009 13.2796 21.5913 12.995 21.3701C12.7104 21.1489 12.3604 21.0285 11.9999 21.0278Z" />
</symbol>


<symbol id="uv" width="24" height="24" viewBox="0 0 24 24"  xmlns="http://www.w3.org/2000/svg">
    <path d="M16.066 8.29492C14.3156 9.19471 12.3702 9.73288 10.3773 9.97492C10.3978 10.7607 10.314 14.0345 10.456 14.7524C10.7485 16.7024 11.8548 18.4349 13.546 19.5149L16.0623 21.1274L18.5823 19.5149C20.566 18.2437 21.751 16.0762 21.751 13.7174V9.98242C19.7748 9.77991 17.776 9.18742 16.066 8.29492ZM15.541 14.9212C15.4821 16.824 12.72 16.8245 12.661 14.9211V12.7124C12.6681 12.2204 13.4014 12.2188 13.411 12.7124C13.411 12.7124 13.411 14.9212 13.411 14.9212C13.4321 15.8306 14.7673 15.8319 14.791 14.9211V12.7124C14.791 12.5062 14.9598 12.3374 15.166 12.3374C15.3723 12.3374 15.541 12.5062 15.541 12.7124V14.9212ZM19.4448 12.8399L18.271 16.1137C18.2148 16.2637 18.076 16.3612 17.9148 16.3612C17.7561 16.3628 17.6113 16.2612 17.5623 16.1062L16.4673 12.8324C16.3226 12.3593 17.0116 12.1304 17.1798 12.5924C17.1798 12.5924 17.9298 14.8424 17.9298 14.8424L18.7398 12.5887C18.9142 12.1255 19.6052 12.3717 19.4448 12.8399Z" />
    <path d="M8.88687 6.69727C5.24157 6.84076 5.23489 12.0673 8.8869 12.2098C9.14187 12.2098 9.38936 12.176 9.62561 12.1085V9.63727C9.62561 9.44602 9.76811 9.28477 9.95936 9.26601C10.5256 9.20602 11.0731 9.1235 11.6056 9.02602C11.4031 7.69851 10.2631 6.69727 8.88687 6.69727Z" />
    <path d="M9.62624 13.7177V12.8814C7.48498 13.3681 5.35853 11.6575 5.38502 9.45766C5.38499 7.52269 6.95624 5.94768 8.8875 5.94768C10.62 5.94768 12.06 7.19644 12.3375 8.8652C13.136 8.67954 13.8797 8.44366 14.6212 8.14518C14.0175 7.71019 13.725 6.96767 13.875 6.23644L14.2125 4.56018C14.2387 4.43642 14.2012 4.30894 14.1112 4.21894C14.0213 4.13268 13.8937 4.09143 13.7737 4.11768L12.0975 4.45519C11.34 4.60893 10.5712 4.29019 10.1437 3.64518L9.20249 2.22018C9.06399 2.00067 8.71364 1.99578 8.57625 2.22019C8.57625 2.22018 7.62751 3.64518 7.62751 3.64518C7.2 4.29019 6.43499 4.60893 5.6775 4.45519L4.00124 4.11768C3.74695 4.06326 3.49571 4.30338 3.55875 4.56019C3.55874 4.56018 3.90001 6.23269 3.90001 6.23269C4.04624 6.99393 3.7275 7.7627 3.08624 8.19769L1.665 9.14645C1.56374 9.21394 1.5 9.33019 1.5 9.45768C1.5 9.58144 1.56374 9.69769 1.66875 9.76894L3.08249 10.7139C3.7275 11.1452 4.04624 11.9177 3.90001 12.6714L3.55875 14.3514C3.49697 14.6016 3.74936 14.851 4.00125 14.7939C4.00125 14.7939 5.67751 14.4527 5.67751 14.4527C6.43499 14.3027 7.20001 14.6214 7.62751 15.2664L8.57625 16.6914C8.71259 16.9102 9.0651 16.9086 9.20249 16.6914C9.20249 16.6914 9.87751 15.6677 9.87751 15.6677C9.70673 15.0336 9.62644 14.3757 9.62624 13.7177Z" />
</symbol>


</svg>