<svg width="118" height="24" viewBox="0 0 118 24" fill="none" xmlns="http://www.w3.org/2000/svg">
<g clip-path="url(#clip0_86_631)">
<path d="M43.793 3.12988H34.0785C32.0149 3.12988 30.3457 4.82238 30.3457 6.91152V10.3156C30.3457 12.4047 32.0149 14.0971 34.0785 14.0971H42.894V17.4985H34.9748V16.3656C34.9748 15.9472 34.6447 15.6076 34.2315 15.6076H31.0944C30.6811 15.6076 30.3484 15.9472 30.3484 16.3656V17.4985C30.3484 19.5876 32.0176 21.2801 34.0812 21.2801H43.7957C45.8513 21.2801 47.5312 19.5876 47.5312 17.4985V14.0944C47.5285 12.008 45.854 10.3156 43.7957 10.3156H34.9775V6.91152H42.8967V8.04437C42.8967 8.46275 43.2268 8.79962 43.6427 8.79962H46.7798C47.1904 8.79962 47.5285 8.46275 47.5285 8.04437V6.91152C47.5285 4.82238 45.8513 3.12988 43.793 3.12988Z" fill="white"/>
<path d="M69.1326 3.12988H53.4499C53.0338 3.12988 52.7012 3.46947 52.7012 3.88513V6.15356C52.7012 6.57193 53.0312 6.9088 53.4499 6.9088H58.9753V20.5221C58.9753 20.9405 59.308 21.2801 59.724 21.2801H62.8584C63.2744 21.2801 63.6044 20.9405 63.6044 20.5221V6.9088H69.1326C69.5459 6.9088 69.8813 6.57193 69.8813 6.15356V3.88784C69.8813 3.46676 69.5459 3.12988 69.1326 3.12988Z" fill="white"/>
<path d="M91.6435 3.12988H75.8105C75.3972 3.12988 75.0645 3.46947 75.0645 3.88513V20.5221C75.0645 20.9405 75.3972 21.2801 75.8105 21.2801H91.6435C92.0648 21.2801 92.3922 20.9405 92.3922 20.5221V18.2564C92.3922 17.8353 92.0648 17.4985 91.6435 17.4985H79.699V14.0944H91.6435C92.0648 14.0944 92.3922 13.7575 92.3922 13.3392V11.0735C92.3922 10.6524 92.0648 10.3128 91.6435 10.3128H79.699V6.9088H91.6435C92.0648 6.9088 92.3922 6.57193 92.3922 6.15356V3.88784C92.3922 3.46676 92.0648 3.12988 91.6435 3.12988Z" fill="white"/>
<path d="M116.525 19.9707L108.018 11.7418C107.929 11.6739 107.873 11.5679 107.873 11.4484C107.873 11.3478 107.912 11.261 107.977 11.193L115.395 4.43662H115.389C115.534 4.29806 115.63 4.10246 115.63 3.88513C115.63 3.46947 115.295 3.12988 114.882 3.12988H110.787C110.588 3.12988 110.408 3.20867 110.275 3.33636L103.456 9.5603H102.194V3.88513C102.194 3.46676 101.864 3.12988 101.451 3.12988H98.3134C97.9008 3.12988 97.5703 3.46947 97.5703 3.88513V20.5221C97.5703 20.9405 97.9008 21.2801 98.3134 21.2801H101.451C101.864 21.2801 102.194 20.9405 102.194 20.5221V13.3365H103.353L111.38 21.0546C111.38 21.0546 111.388 21.06 111.391 21.06L111.402 21.0737C111.541 21.2013 111.716 21.2801 111.914 21.2801H116.012C116.422 21.2801 116.758 20.9405 116.758 20.5221C116.758 20.3048 116.661 20.1092 116.516 19.9707H116.522H116.525Z" fill="white"/>
<path d="M20.0195 3.76495L8.67881 0.168057C6.56417 -0.513831 4.1919 0.942314 3.42977 3.39548L0.241708 13.594C-0.520422 16.0743 0.579836 18.6497 2.69717 19.3017L14.0379 22.9312C16.182 23.6185 18.5516 22.1597 19.3164 19.6711L22.5045 9.50262C23.2639 7.01683 22.1637 4.45228 20.0195 3.76223V3.76495ZM21.0366 8.65227L17.6231 19.5354C17.1991 20.9317 15.7044 21.6761 14.3224 21.2468L3.4593 17.7641C2.04774 17.3348 1.25877 15.8216 1.70961 14.4497L5.09626 3.56663C5.51758 2.16754 7.01232 1.396 8.42656 1.8524L19.287 5.31346C20.669 5.76987 21.4606 7.25318 21.0366 8.65227Z" fill="white"/>
<path d="M11.8155 13.7127C12.1268 12.6939 10.2188 11.7812 9.57201 11.2569C8.41274 10.3657 8.10145 8.99113 8.44494 7.76318C8.2571 8.38259 7.98338 9.46113 7.94848 9.72734C7.80357 10.8194 8.16854 11.9578 9.17755 12.7293C9.63644 13.1015 10.7259 13.6666 11.2143 14.3321C11.4988 14.2099 11.7296 14.0061 11.8155 13.7127Z" fill="white"/>
<path d="M8.49609 7.59916C8.50687 7.56099 8.52033 7.52283 8.53111 7.48193C8.51764 7.51737 8.50687 7.55554 8.49609 7.59916Z" fill="white"/>
<path d="M11.5585 17.0319C10.8126 17.1678 9.85721 16.9559 9.18363 16.6951C8.28195 16.3528 6.16463 14.7853 6.01166 14.2881L5.61719 15.7606C5.77015 16.2577 7.89015 17.8252 8.78647 18.1675C9.46001 18.4256 10.4154 18.6375 11.1641 18.5044C11.9397 18.3495 12.7903 18.1159 13.3593 17.5671C13.692 17.2249 14.2368 16.3881 14.3683 15.8937C14.4756 15.546 14.54 15.2172 14.5642 14.9102C14.3388 15.3557 13.9926 15.8529 13.7564 16.0947C13.1875 16.6435 12.3341 16.8798 11.5585 17.0319Z" fill="white"/>
<path d="M8.57746 7.37401C8.56661 7.39597 8.55577 7.42067 8.54492 7.44812C8.55848 7.41244 8.57475 7.38499 8.58559 7.35205C8.58288 7.36028 8.58017 7.36578 8.57746 7.37401Z" fill="white"/>
<path d="M12.3538 9.33402C13.0516 9.54052 13.6714 9.98608 14.2135 10.7196L15.9954 8.86133C16.3711 7.4731 16.0813 8.65215 16.3926 7.3916L14.6107 9.24707C14.0686 8.51359 13.4514 8.07077 12.7509 7.8616C11.6292 7.49212 11.1757 8.58695 11.7366 9.27975C11.9083 9.24439 12.1177 9.25528 12.3538 9.33679V9.33402Z" fill="white"/>
<path d="M8.53125 7.4852C8.53125 7.4852 8.5397 7.45705 8.54532 7.4458C8.5397 7.45987 8.53688 7.47395 8.53125 7.4852Z" fill="white"/>
<path d="M8.44336 7.76542C8.46221 7.70545 8.47836 7.65092 8.49722 7.59912C8.47836 7.65092 8.45951 7.70817 8.44336 7.76542Z" fill="white"/>
</g>
<defs>
<clipPath id="clip0_86_631">
<rect width="117.231" height="24" fill="white"/>
</clipPath>
</defs>
</svg>
