<svg width="113" height="24" viewBox="0 0 113 24" fill="none" xmlns="http://www.w3.org/2000/svg">
<g clip-path="url(#clip0_86_617)">
<mask id="mask0_86_617" style="mask-type:luminance" maskUnits="userSpaceOnUse" x="0" y="0" width="113" height="24">
<path d="M112.981 0H0V24H112.981V0Z" fill="white"/>
</mask>
<g mask="url(#mask0_86_617)">
<path d="M14.7224 7.21889C14.7512 6.91057 14.6908 6.60048 14.5485 6.32546C14.4062 6.05044 14.1879 5.82205 13.9197 5.66741C13.3465 5.37067 12.7057 5.22886 12.0608 5.25605C10.4143 5.25605 9.60222 5.73082 9.45705 6.55388C8.85384 9.97326 22.336 7.85172 20.8733 16.146C19.9398 21.4336 15.0874 24 8.81876 24C2.80113 24 -0.503973 20.485 0.0651176 16.3694H7.21964C7.20731 16.7232 7.28495 17.0743 7.44528 17.3899C7.60561 17.7055 7.84339 17.9752 8.13636 18.1739C8.73799 18.5613 9.44174 18.7599 10.1571 18.7443C12.0241 18.7443 13.3657 18.1427 13.5559 17.066C14.1636 13.6157 0.637428 15.9896 2.17314 7.28231C3.02645 2.43763 7.63615 0 13.3358 0C19.6679 0 21.9799 3.22914 21.8145 7.21889H14.7224Z" fill="#ffffff" fill-opacity="0.5"/>
<path d="M38.4295 23.3986H32.3185L32.7486 20.9604C30.7001 23.24 28.9738 23.8731 26.2504 23.8731C22.6411 23.8731 20.6889 21.6569 21.5267 16.9079L23.3077 6.80713H29.8934L28.313 15.7677C27.911 18.0473 28.5747 18.7757 30.1574 18.7757C32.0565 18.7757 32.9101 17.3511 33.3624 14.786L34.7706 6.80713H41.3564L38.4295 23.3986Z" fill="#ffffff" fill-opacity="0.5"/>
<path d="M42.5294 6.80779H48.5451L48.0874 9.40378C49.927 7.4081 51.7321 6.33301 54.2328 6.33301C58.6021 6.33301 60.2083 8.89746 59.4042 13.4566L57.6509 23.3987H51.0655L52.6105 14.6283C52.9002 12.9818 52.7148 11.5253 50.8466 11.5253C48.8203 11.5253 48.053 12.8232 47.6789 14.9447L46.1893 23.399H39.6035L42.5294 6.80779Z" fill="#ffffff" fill-opacity="0.5"/>
<path d="M58.8227 0.601562H80.6001L79.5443 6.58571H71.9524L68.9865 23.3987H61.515L64.4801 6.58571H57.7676L58.8227 0.601562Z" fill="#ffffff"/>
<path d="M86.0084 13.2348C86.076 12.8822 86.0644 12.5189 85.9745 12.1712C85.8846 11.8236 85.7186 11.5002 85.4885 11.2246C85.2584 10.9489 84.9699 10.7277 84.644 10.5771C84.318 10.4265 83.9626 10.3502 83.6036 10.3537C81.6401 10.3537 80.3368 11.4622 80.0242 13.2348H86.0084ZM79.4313 16.5915C79.0849 18.5549 80.376 19.8528 82.1177 19.8528C82.6579 19.8581 83.1906 19.7275 83.6671 19.473C84.1435 19.2184 84.5482 18.8482 84.8441 18.3963H91.145C89.2781 22.5122 84.8599 23.8734 80.9969 23.8734C75.6775 23.8734 72.0975 20.8339 73.0805 15.2618C74.0404 9.81579 78.7389 6.33301 84.0568 6.33301C90.1993 6.33301 93.1558 10.5754 91.9996 16.5915H79.4313Z" fill="#ffffff"/>
<path d="M98.971 18.7439L98.1502 23.3984H91.5645L95.5848 0.601562H102.171L100.183 11.8733L105.287 6.80588H112.98L105.705 13.2329L110.847 23.3968H102.931L100.423 17.5063L98.971 18.7439Z" fill="#ffffff"/>
<path d="M104.111 1.48779C104.307 1.48779 104.371 1.39123 104.371 1.29176C104.371 1.16752 104.271 1.09863 104.079 1.09863H103.815V1.48779H104.111ZM104.407 2.2925L104.293 2.06074C104.241 1.95999 104.176 1.86666 104.1 1.78328C104.069 1.75425 104.032 1.73269 103.992 1.72029C103.952 1.70789 103.909 1.70499 103.868 1.71182H103.814V2.29121H103.53V0.879429H104.228C104.531 0.879429 104.673 1.05003 104.673 1.27438C104.674 1.37715 104.635 1.47629 104.564 1.55033C104.493 1.62438 104.395 1.66736 104.292 1.66998V1.67706C104.413 1.71987 104.453 1.75849 104.595 2.00796L104.759 2.29314L104.407 2.2925ZM103.064 1.58017C103.064 1.79192 103.126 1.99899 103.244 2.17515C103.361 2.35131 103.529 2.48865 103.724 2.56977C103.92 2.65089 104.135 2.67215 104.343 2.63086C104.55 2.58956 104.741 2.48757 104.891 2.33779C105.041 2.18802 105.142 1.99719 105.184 1.78948C105.225 1.58177 105.203 1.36651 105.122 1.17097C105.041 0.975419 104.903 0.808375 104.727 0.690984C104.551 0.573592 104.344 0.511134 104.132 0.511516C103.849 0.511942 103.577 0.624689 103.377 0.825027C103.177 1.02537 103.064 1.29694 103.064 1.58017ZM105.464 1.58017C105.464 1.84352 105.386 2.10095 105.24 2.31992C105.093 2.53889 104.885 2.70957 104.642 2.81038C104.399 2.91119 104.131 2.93759 103.873 2.88627C103.615 2.83494 103.377 2.70817 103.191 2.52201C103.005 2.33584 102.878 2.09862 102.826 1.84035C102.775 1.58209 102.801 1.31436 102.902 1.07102C103.003 0.827687 103.173 0.61967 103.392 0.47327C103.611 0.326871 103.868 0.248664 104.132 0.248537C104.307 0.248282 104.48 0.282561 104.642 0.349408C104.804 0.416255 104.95 0.514356 105.074 0.63809C105.198 0.761825 105.296 0.908759 105.363 1.07047C105.43 1.23219 105.464 1.40551 105.464 1.58049" fill="#ffffff"/>
</g>
</g>
<defs>
<clipPath id="clip0_86_617">
<rect width="112.981" height="24" fill="white"/>
</clipPath>
</defs>
</svg>
