<svg width="24" height="24" viewBox="0 0 24 24" fill="none" xmlns="http://www.w3.org/2000/svg">
<path d="M16.066 8.29492C14.3156 9.19471 12.3702 9.73288 10.3773 9.97492C10.3978 10.7607 10.314 14.0345 10.456 14.7524C10.7485 16.7024 11.8548 18.4349 13.546 19.5149L16.0623 21.1274L18.5823 19.5149C20.566 18.2437 21.751 16.0762 21.751 13.7174V9.98242C19.7748 9.77991 17.776 9.18742 16.066 8.29492ZM15.541 14.9212C15.4821 16.824 12.72 16.8245 12.661 14.9211V12.7124C12.6681 12.2204 13.4014 12.2188 13.411 12.7124C13.411 12.7124 13.411 14.9212 13.411 14.9212C13.4321 15.8306 14.7673 15.8319 14.791 14.9211V12.7124C14.791 12.5062 14.9598 12.3374 15.166 12.3374C15.3723 12.3374 15.541 12.5062 15.541 12.7124V14.9212ZM19.4448 12.8399L18.271 16.1137C18.2148 16.2637 18.076 16.3612 17.9148 16.3612C17.7561 16.3628 17.6113 16.2612 17.5623 16.1062L16.4673 12.8324C16.3226 12.3593 17.0116 12.1304 17.1798 12.5924C17.1798 12.5924 17.9298 14.8424 17.9298 14.8424L18.7398 12.5887C18.9142 12.1255 19.6052 12.3717 19.4448 12.8399Z" fill="currentColor"/>
<path d="M8.88687 6.69727C5.24157 6.84076 5.23489 12.0673 8.8869 12.2098C9.14187 12.2098 9.38936 12.176 9.62561 12.1085V9.63727C9.62561 9.44602 9.76811 9.28477 9.95936 9.26601C10.5256 9.20602 11.0731 9.1235 11.6056 9.02602C11.4031 7.69851 10.2631 6.69727 8.88687 6.69727Z" fill="currentColor"/>
<path d="M9.62624 13.7177V12.8814C7.48498 13.3681 5.35853 11.6575 5.38502 9.45766C5.38499 7.52269 6.95624 5.94768 8.8875 5.94768C10.62 5.94768 12.06 7.19644 12.3375 8.8652C13.136 8.67954 13.8797 8.44366 14.6212 8.14518C14.0175 7.71019 13.725 6.96767 13.875 6.23644L14.2125 4.56018C14.2387 4.43642 14.2012 4.30894 14.1112 4.21894C14.0213 4.13268 13.8937 4.09143 13.7737 4.11768L12.0975 4.45519C11.34 4.60893 10.5712 4.29019 10.1437 3.64518L9.20249 2.22018C9.06399 2.00067 8.71364 1.99578 8.57625 2.22019C8.57625 2.22018 7.62751 3.64518 7.62751 3.64518C7.2 4.29019 6.43499 4.60893 5.6775 4.45519L4.00124 4.11768C3.74695 4.06326 3.49571 4.30338 3.55875 4.56019C3.55874 4.56018 3.90001 6.23269 3.90001 6.23269C4.04624 6.99393 3.7275 7.7627 3.08624 8.19769L1.665 9.14645C1.56374 9.21394 1.5 9.33019 1.5 9.45768C1.5 9.58144 1.56374 9.69769 1.66875 9.76894L3.08249 10.7139C3.7275 11.1452 4.04624 11.9177 3.90001 12.6714L3.55875 14.3514C3.49697 14.6016 3.74936 14.851 4.00125 14.7939C4.00125 14.7939 5.67751 14.4527 5.67751 14.4527C6.43499 14.3027 7.20001 14.6214 7.62751 15.2664L8.57625 16.6914C8.71259 16.9102 9.0651 16.9086 9.20249 16.6914C9.20249 16.6914 9.87751 15.6677 9.87751 15.6677C9.70673 15.0336 9.62644 14.3757 9.62624 13.7177Z" fill="currentColor"/>
</svg>
