<svg width="94" height="24" viewBox="0 0 94 24" fill="none" xmlns="http://www.w3.org/2000/svg">
<path d="M11.5798 10.6562C11.5798 8.88937 13.0138 7.45545 14.7805 7.45545C16.5473 7.45545 17.9812 8.88937 17.9812 10.6562C17.9812 12.4231 16.5473 13.8569 14.7805 13.8569C13.0138 13.8569 11.5798 12.423 11.5798 10.6562ZM7.55527 8.32635C6.26835 8.32635 5.22547 9.36922 5.22547 10.6562C5.22547 11.9432 6.26835 12.986 7.55527 12.986C8.8422 12.986 9.88515 11.9431 9.88515 10.6562C9.88515 9.3693 8.84227 8.32635 7.55527 8.32635ZM3.528 10.6562C3.528 11.6297 2.7375 12.4202 1.764 12.4202C0.7905 12.4202 0 11.6297 0 10.6562C0 9.68272 0.7905 8.89215 1.764 8.89215C2.7375 8.89215 3.528 9.68265 3.528 10.6562ZM84.3705 18.8078H93.648L92.4607 24H75.639L80.0407 4.93703H87.582C87.582 4.93703 84.645 17.6235 84.3705 18.8078ZM37.746 4.9287L36.5783 9.95445H49.9859C51.1702 9.95445 51.528 10.4953 51.528 11.186C51.528 11.8766 51.062 12.4701 49.9415 12.4701H35.9959L34.8642 17.3545L31.1753 11.2026L37.746 4.9287ZM9.96 24H19.1989L25.3813 17.1769L29.5694 24H40.7858C40.7858 24 42.1199 18.2947 42.2891 17.5763H48.7294C50.2522 17.5236 53.084 17.4265 55.1281 15.5489C55.8576 14.9913 56.4817 13.8458 56.8645 12.5839L54.2295 24H73.4728L74.6626 18.8578H62.9109C63.069 18.2004 63.3907 16.8552 63.4989 16.4031H75.2287L76.1407 12.4784H64.3781C64.5307 11.8239 64.8496 10.4343 64.955 9.97942H76.7182L77.877 4.9398H58.6312L57.0502 11.785C57.2999 10.5258 57.3138 9.225 56.809 8.25705C56.171 6.8952 54.6899 5.2227 51.2395 4.96755C50.5406 4.9065 49.6087 4.9065 44.4359 4.90928H37.7654L42.9104 0H33.0752L27.5086 5.61652L24.3328 0H14.8498L21.9198 11.2026L9.96277 24H9.96Z" fill="#526169"/>
</svg>
