<svg width="127" height="26" viewBox="0 0 127 26" fill="none" xmlns="http://www.w3.org/2000/svg">
<path d="M49.0801 10.0377C48.8524 9.80777 48.5831 9.62259 48.2864 9.49191C47.9876 9.36413 47.6653 9.29974 47.3401 9.30284H42.7039C42.3787 9.29975 42.0565 9.36415 41.7578 9.49191C41.1624 9.75972 40.6852 10.2338 40.4153 10.8258C40.2865 11.1233 40.2217 11.4444 40.2252 11.7684V14.2926C40.2224 14.6199 40.2886 14.9441 40.4194 15.2444C40.5478 15.5371 40.7328 15.8017 40.964 16.0232C41.0778 16.1325 41.2004 16.2323 41.3307 16.3215C41.4627 16.412 41.603 16.49 41.7497 16.5544C41.8978 16.6195 42.052 16.6699 42.21 16.7048C42.3721 16.7407 42.5378 16.7586 42.7039 16.7581H47.3401C47.5062 16.7586 47.6718 16.7407 47.8339 16.7048C47.992 16.6699 48.1463 16.6195 48.2944 16.5544C48.4411 16.4899 48.5813 16.412 48.7134 16.3215C48.8437 16.2323 48.9663 16.1325 49.0801 16.0232C49.3112 15.8016 49.4963 15.537 49.6247 15.2444C49.7555 14.9441 49.8217 14.6198 49.8189 14.2926V11.7683C49.8223 11.4444 49.7575 11.1234 49.6289 10.8258C49.4971 10.5312 49.311 10.2639 49.0801 10.0377ZM48.2556 14.423C48.2555 14.5405 48.229 14.6565 48.1781 14.7625C48.0757 14.9798 47.8999 15.1545 47.6814 15.2563C47.5749 15.3072 47.4582 15.3336 47.3401 15.3336H42.7039C42.5858 15.3336 42.4692 15.3072 42.3627 15.2563C42.1442 15.1545 41.9685 14.9798 41.8661 14.7625C41.8151 14.6565 41.7886 14.5405 41.7886 14.423V11.638C41.7877 11.5159 41.8118 11.395 41.8593 11.2825C41.9511 11.0633 42.1263 10.8892 42.3467 10.7979C42.4597 10.7506 42.5812 10.7266 42.7039 10.7274H47.3401C47.4605 10.7267 47.5798 10.7498 47.6912 10.7954C47.8025 10.8409 47.9037 10.9079 47.9889 10.9926C48.074 11.0773 48.1414 11.178 48.1872 11.2887C48.233 11.3995 48.2562 11.5182 48.2556 11.638V14.423Z" fill="white"/>
<path d="M60.7509 9.2998H58.4145L53.0504 13.3394V9.30266H51.4866V16.7578H53.0504V15.1046L56.2566 12.6868L59.1584 16.7555L61.083 16.7607L57.5016 11.7468L60.7509 9.2998Z" fill="white"/>
<path d="M67.7746 9.23877C67.5409 9.23877 67.3036 9.41985 67.0627 9.78202L62.397 16.7579H64.3028L67.7746 11.5286L71.2465 16.7579H73.1523L68.4868 9.78202C68.2457 9.41985 68.0083 9.23877 67.7746 9.23877Z" fill="white"/>
<path d="M74.1489 13.6614L80.608 13.6671V12.2373H74.1489V13.6614Z" fill="white"/>
<path d="M103.356 10.0377C103.128 9.80778 102.859 9.6226 102.562 9.49191C102.263 9.36413 101.941 9.29974 101.616 9.30284H96.9794C96.6542 9.29976 96.332 9.36415 96.0333 9.49191C95.4379 9.75976 94.9607 10.2338 94.6908 10.8258C94.562 11.1234 94.4973 11.4444 94.5007 11.7684V14.2926C94.498 14.6199 94.5641 14.9441 94.6949 15.2444C94.8233 15.5371 95.0084 15.8017 95.2396 16.0232C95.3533 16.1325 95.476 16.2323 95.6063 16.3215C95.7383 16.412 95.8786 16.49 96.0253 16.5544C96.1734 16.6195 96.3275 16.6699 96.4856 16.7048C96.6477 16.7407 96.8133 16.7586 96.9794 16.7581H101.616C101.782 16.7586 101.947 16.7407 102.11 16.7048C102.268 16.6699 102.422 16.6195 102.57 16.5544C102.717 16.49 102.857 16.412 102.989 16.3215C103.119 16.2323 103.242 16.1325 103.356 16.0232C103.587 15.8016 103.772 15.537 103.9 15.2444C104.031 14.9441 104.097 14.6199 104.094 14.2926V11.7684C104.098 11.4444 104.033 11.1234 103.904 10.8258C103.773 10.5313 103.587 10.264 103.356 10.0377ZM102.531 14.423C102.531 14.5405 102.505 14.6565 102.454 14.7625C102.351 14.9798 102.175 15.1545 101.957 15.2563C101.85 15.3072 101.734 15.3336 101.616 15.3336H96.9794C96.8613 15.3336 96.7447 15.3072 96.6382 15.2563C96.4197 15.1545 96.244 14.9798 96.1416 14.7625C96.0906 14.6565 96.0641 14.5405 96.0641 14.423V11.638C96.0632 11.5159 96.0873 11.395 96.1349 11.2825C96.2267 11.0634 96.4019 10.8892 96.6222 10.7979C96.7352 10.7506 96.8567 10.7266 96.9794 10.7274H101.616C101.736 10.7267 101.855 10.7498 101.967 10.7953C102.078 10.8409 102.179 10.9079 102.264 10.9926C102.35 11.0773 102.417 11.1779 102.463 11.2887C102.509 11.3995 102.532 11.5182 102.531 11.638V14.423Z" fill="white"/>
<path d="M117.406 9.30273V10.7274H121.421V16.7579H122.988V10.7274H127V9.30273H117.406Z" fill="white"/>
<path d="M105.915 16.758H107.481V13.6614H114.532V12.2373H105.915V16.758Z" fill="white"/>
<path d="M106.424 9.36412C106.322 9.4024 106.229 9.46186 106.152 9.53852C106.075 9.61519 106.015 9.70731 105.977 9.80875C105.935 9.92016 105.914 10.0385 105.915 10.1575V10.7274H115.506V9.30281H106.775C106.655 9.30127 106.536 9.32207 106.424 9.36412Z" fill="white"/>
<path d="M33.5582 11.0881L31.7692 9.32178H29.4218L32.496 12.1447L33.5582 11.0881Z" fill="white"/>
<path d="M33.5967 12.7726V16.7579H35.1628V13.2463L39.3894 9.30273H37.1379L33.5967 12.7726Z" fill="white"/>
<path d="M92.6157 9.30297H85.1848C84.9111 9.29916 84.6387 9.34149 84.3791 9.42815C84.1518 9.50514 83.9395 9.62043 83.7515 9.76897C83.5746 9.90993 83.423 10.0796 83.3031 10.2708C83.2288 10.418 83.166 10.5707 83.1155 10.7275H92.6157V9.30297Z" fill="white"/>
<path d="M83.0108 12.2368H83.0009C83.0046 12.2542 83.0077 12.2485 83.0108 12.2368Z" fill="white"/>
<path d="M92.621 13.4018C92.5389 13.2342 92.4349 13.078 92.3119 12.9373C92.186 12.7936 92.0393 12.6693 91.8768 12.5685C91.7026 12.461 91.5137 12.379 91.3161 12.325C91.0915 12.2641 90.8595 12.2345 90.6267 12.237H83.0408C83.0989 12.441 83.1853 12.636 83.2976 12.8162C83.4177 13.0074 83.5693 13.1771 83.7461 13.3181C83.9345 13.4668 84.1474 13.5821 84.3752 13.6589C84.6361 13.7456 84.9098 13.7879 85.1848 13.784L90.5974 13.792C90.7042 13.7897 90.81 13.812 90.9066 13.8572C90.9888 13.8963 91.0624 13.9513 91.1231 14.0189C91.1838 14.0866 91.2303 14.1656 91.2599 14.2513C91.2884 14.3304 91.3033 14.4136 91.304 14.4976C91.3028 14.592 91.288 14.6857 91.2599 14.7758C91.2311 14.873 91.1863 14.9648 91.1273 15.0474C91.0685 15.1299 90.9934 15.1997 90.9066 15.2524C90.8133 15.3079 90.7061 15.336 90.5974 15.3335H83.2121V16.7581H90.6267C90.8592 16.7604 91.0909 16.73 91.3148 16.6676C91.5134 16.6117 91.7031 16.5283 91.8783 16.4199C92.0417 16.3181 92.1887 16.1924 92.3145 16.0471C92.4372 15.9052 92.5412 15.7481 92.6237 15.5798C92.7058 15.412 92.7678 15.235 92.8083 15.0527C92.8492 14.8705 92.869 14.6843 92.8674 14.4976C92.8675 14.3073 92.8468 14.1175 92.8056 13.9317C92.7653 13.7484 92.7034 13.5706 92.621 13.4018Z" fill="white"/>
<path d="M83.0109 12.2367H83.0409C83.0379 12.2263 83.033 12.2167 83.0301 12.2063C83.0218 12.1759 83.0164 12.2161 83.0109 12.2367Z" fill="white"/>
<path d="M23.7211 11.1591C23.1383 9.31774 22.1378 7.63433 20.7969 6.23888C20.7481 6.18463 20.6963 6.13312 20.6417 6.08459C20.5211 5.96459 20.4234 5.8503 20.3028 5.74172C20.2409 5.69532 20.1814 5.64572 20.1247 5.59315C19.096 4.67652 17.8604 4.01988 16.5226 3.67879C18.1293 3.28924 19.8088 3.3089 21.4058 3.73593C21.9378 3.86804 22.4554 4.05178 22.9512 4.28452L24.4105 1.21584C23.7228 0.901565 23.0099 0.645413 22.2791 0.450093C20.4016 -0.051636 18.436 -0.135084 16.5224 0.205701C14.6087 0.546486 12.7943 1.30311 11.2085 2.4216L11.0763 2.51303C8.80129 4.13375 7.11445 6.44311 6.26778 9.09614C6.21033 9.24471 6.16437 9.399 6.11841 9.55901C5.97257 10.0711 5.8726 10.5951 5.81967 11.1248C5.76317 11.6582 5.75548 12.1957 5.79669 12.7306C5.81967 12.9934 5.85414 13.262 5.9001 13.5249C5.92308 13.6563 5.95181 13.7877 5.98053 13.9192C5.99202 13.9878 6.00926 14.0506 6.02649 14.1192C6.03798 14.1535 6.04373 14.1878 6.05522 14.222C6.05612 14.2458 6.06199 14.2692 6.07245 14.2906C4.93567 13.1088 4.1141 11.663 3.68254 10.0847C3.54098 9.55304 3.44677 9.00997 3.401 8.46183L1.70049 8.6104H1.69477L0 8.75327C0.06405 9.50092 0.196738 10.2412 0.396404 10.9648C0.883102 12.7836 1.75726 14.4771 2.95961 15.9304C4.16196 17.3837 5.6644 18.5629 7.36507 19.388L7.65232 19.5251C10.2728 20.7414 13.2253 21.057 16.0458 20.4223C16.1204 20.4052 16.1951 20.388 16.2641 20.3709L16.626 20.2852C16.6949 20.268 16.9018 20.1994 16.9018 20.1994C18.2583 19.7942 19.4922 19.0598 20.4924 18.0622C20.5154 18.0394 20.5326 18.0165 20.5556 17.9936C20.0946 19.5686 19.2432 21.003 18.0795 22.1652C17.6772 22.5515 17.2491 22.9104 16.7983 23.2396L16.58 23.4281L18.7804 25.9996C19.3872 25.5682 19.9578 25.0885 20.4866 24.5653C21.6992 23.3584 22.6666 21.9304 23.3361 20.3594C23.7121 19.4662 23.9895 18.535 24.1634 17.5822C24.3254 16.6676 24.3928 15.7389 24.3645 14.8106C24.3265 13.5691 24.1098 12.3394 23.7211 11.1591ZM18.0795 15.6678C17.4536 16.2817 16.6804 16.7263 15.8332 16.9593H15.8274C14.9615 17.2154 14.0432 17.2418 13.1638 17.036C12.2844 16.8301 11.4744 16.3991 10.8141 15.7857C10.1539 15.1722 9.66638 14.3978 9.39997 13.5391C9.13356 12.6804 9.0975 11.7673 9.29539 10.8905C9.29539 10.8905 9.33561 10.7133 9.3471 10.6562L9.41029 10.4162C9.41029 10.4162 9.47349 10.2276 9.49647 10.1647C9.49865 10.1625 9.50029 10.1598 9.50129 10.1568C9.50228 10.1539 9.5026 10.1507 9.50221 10.1476C9.76509 9.4587 10.1724 8.83339 10.6972 8.31325C10.8378 8.17445 10.9855 8.04285 11.1395 7.91895C11.3818 7.7278 11.6415 7.55945 11.9151 7.41607C12.181 7.27236 12.4599 7.15374 12.7481 7.06177C13.0313 6.97038 13.3214 6.90158 13.6156 6.85602C14.2077 6.77219 14.8097 6.78764 15.3966 6.90174C15.69 6.96283 15.9782 7.0469 16.2583 7.15318C16.5422 7.261 16.8153 7.39492 17.0741 7.55319C17.3655 7.73314 17.6421 7.93568 17.9014 8.15893C17.9933 8.23893 18.0852 8.33036 18.1714 8.4218C19.1081 9.40348 19.6226 10.71 19.6055 12.0634C19.5883 13.4167 19.0408 14.71 18.0795 15.6678Z" fill="white"/>
</svg>
