<svg viewBox="0 0 780 780" fill="none" xmlns="http://www.w3.org/2000/svg">
<path d="M552.891 454.275L549.695 431.905C540.717 384.327 517.827 340.482 483.922 305.918L482.439 304.272C481.279 302.906 479.927 301.622 478.666 300.358C477.395 299.087 477.31 299.04 478.605 300.334C503.085 324.868 516.833 358.111 516.833 392.768C516.834 427.426 503.087 460.669 478.608 485.203C462.921 500.679 443.534 511.882 422.293 517.746L409.892 521.411C358.838 533.126 305.362 527.985 257.474 506.758L253.162 504.86C220.431 489.524 191.418 467.268 168.125 439.628C144.832 411.989 127.813 379.625 118.244 344.769C114.678 331.411 112.284 317.767 111.089 303.993L68.5872 307.698L68.4991 307.61L68.4149 307.698L26 311.319C27.6449 330.112 30.9622 348.72 35.9126 366.924C48.1286 412.677 70.0189 455.277 100.105 491.848C130.192 528.419 167.775 558.109 210.316 578.914L217.558 582.363C283.164 612.924 357.06 620.839 427.65 604.865C429.548 604.518 431.359 604.09 433.169 603.655L442.135 601.416C443.894 601.038 449.097 599.369 449.097 599.369C483.035 589.125 513.908 570.634 538.957 545.548C539.52 544.985 539.989 544.362 540.545 543.792C550.11 514.961 554.295 484.618 552.891 454.275Z" fill="url(#paint0_linear_298_1794)"/>
<path d="M635.916 463.76C637.421 509.134 629.584 554.333 612.892 596.552C596.201 638.771 571.01 677.109 538.885 709.187C525.624 722.365 511.303 734.431 496.065 745.263L441.108 680.524L446.503 675.807C457.766 667.538 468.467 658.527 478.533 648.834C503.67 623.407 523.058 592.883 535.389 559.322C547.72 525.761 552.706 489.945 550.011 454.292L547.314 432.715C546.781 428.452 545.745 424.179 544.805 419.991C543.853 415.752 542.788 411.54 541.612 407.355C534.573 382.301 523.528 358.551 508.904 337.025C503.973 329.763 498.659 322.769 492.985 316.072C487.218 308.977 480.887 302.359 474.055 296.284C467.616 290.649 460.727 285.552 453.456 281.042C440.475 273.205 426.229 267.688 411.355 264.739C389.284 260.342 366.453 261.698 345.057 268.675C330.501 273.429 316.909 280.739 304.919 290.263C301.016 293.364 297.294 296.685 293.769 300.21C280.528 313.374 270.291 329.246 263.761 346.738C279.284 296.013 311.09 251.816 354.258 220.986L357.254 219.388C382.272 202.61 410.105 190.472 439.422 183.552C472.993 192.09 503.997 208.632 529.781 231.763C531.13 233.115 532.816 234.126 534.164 235.475C537.199 238.169 539.726 241.014 542.775 244.064C544.124 245.412 545.291 246.598 546.639 247.95C580.196 283.098 605.243 325.474 619.854 371.82C629.552 401.547 634.96 432.505 635.916 463.76Z" fill="url(#paint1_linear_298_1794)"/>
<path d="M637 121.582L600.586 198.792C588.12 192.987 575.139 188.359 561.813 184.968C527.352 175.734 491.299 174.087 456.14 180.141C420.982 186.195 387.555 199.805 358.168 220.033L355.47 221.718C311.996 252.214 279.769 296.172 263.762 346.805C263.108 348.409 261.626 353.163 261.626 353.163L260.011 359.207C259.749 360.521 258.705 365.012 258.705 365.012C253.747 387.08 254.647 410.061 261.315 431.674C267.983 453.287 280.187 472.781 296.717 488.219C313.246 503.658 333.526 514.506 355.543 519.685C377.56 524.865 400.549 524.196 422.228 517.746L409.753 521.455C358.505 533.252 307.833 538.034 259.282 516.792L248.896 512.398C220.237 499.249 199.365 473.241 178.123 450.985C177.771 450.615 177.671 449.324 177.537 448.818C177.311 447.964 177.09 447.109 176.875 446.253C176.461 444.608 176.067 442.958 175.693 441.304C174.947 438.003 174.28 434.686 173.691 431.353C172.52 424.711 171.664 418.024 171.124 411.292C170.054 397.852 170.228 384.341 171.645 370.933C173.059 357.598 175.58 344.404 179.184 331.488C180.278 327.558 181.498 323.673 182.844 319.833C204.107 253.136 246.319 195.078 303.21 154.286L306.582 151.926C346.28 123.771 391.706 104.73 439.615 96.1627C487.523 87.5951 536.733 89.7124 583.728 102.363C601.997 107.252 619.818 113.682 637 121.582Z" fill="url(#paint2_linear_298_1794)"/>
<mask id="mask0_298_1794" style="mask-type:luminance" maskUnits="userSpaceOnUse" x="170" y="91" width="467" height="449">
<path d="M637 121.582L600.586 198.791C588.12 192.987 575.139 188.359 561.813 184.968C527.352 175.734 491.299 174.087 456.14 180.141C420.982 186.195 387.555 199.805 358.168 220.033L355.47 221.718C311.996 252.214 279.769 296.172 263.762 346.805C263.108 348.409 261.626 353.163 261.626 353.163L260.011 359.207C259.749 360.521 258.705 365.012 258.705 365.012C253.747 387.08 254.647 410.061 261.315 431.674C267.983 453.287 280.187 472.781 296.717 488.219C313.246 503.658 333.526 514.506 355.543 519.685C377.56 524.865 400.549 524.196 422.228 517.746L409.753 521.455C386.665 532.394 361.556 538.418 336.017 539.144C310.479 539.871 285.068 535.284 261.395 525.675L243.019 516.487C214.361 503.338 199.365 473.241 178.123 450.985C177.771 450.615 177.671 449.324 177.537 448.818C177.311 447.964 177.09 447.109 176.875 446.253C176.461 444.608 176.067 442.958 175.693 441.304C174.947 438.003 174.28 434.686 173.691 431.353C172.52 424.711 171.664 418.024 171.124 411.292C170.054 397.852 170.228 384.341 171.645 370.933C173.059 357.598 175.58 344.404 179.184 331.488C180.278 327.558 181.498 323.673 182.844 319.833C204.107 253.136 246.319 195.078 303.21 154.286L306.582 151.926C346.28 123.771 391.706 104.73 439.615 96.1627C487.523 87.5951 536.733 89.7124 583.728 102.363C601.997 107.252 619.818 113.682 637 121.582Z" fill="white"/>
</mask>
<g mask="url(#mask0_298_1794)">
<path d="M552.89 454.276L549.694 431.905C540.716 384.327 517.826 340.482 483.921 305.918L482.438 304.273C481.278 302.907 479.926 301.623 478.665 300.358C477.394 299.087 477.309 299.04 478.604 300.335C503.083 324.869 516.831 358.111 516.832 392.769C516.833 427.426 503.086 460.669 478.607 485.204C462.92 500.68 443.533 511.883 422.292 517.747L409.891 521.411C358.837 533.126 305.361 527.985 257.473 506.759L253.161 504.86C220.43 489.524 191.417 467.268 168.124 439.629C144.83 411.99 127.812 379.625 118.243 344.769C114.677 331.411 112.283 317.767 111.088 303.993L68.586 307.698L68.498 307.611L68.4137 307.698L25.9989 311.32C27.6437 330.112 30.9611 348.721 35.9114 366.924C48.1275 412.678 70.0177 455.278 100.104 491.849C130.191 528.419 167.773 558.109 210.315 578.914L217.557 582.364C283.163 612.925 357.059 620.84 427.649 604.866C429.547 604.518 431.358 604.09 433.168 603.655L442.133 601.417C443.893 601.039 449.096 599.37 449.096 599.37C483.034 589.125 513.907 570.634 538.956 545.549C539.519 544.986 539.988 544.362 540.544 543.792C550.109 514.962 554.294 484.619 552.89 454.276Z" fill="url(#paint3_linear_298_1794)"/>
</g>
<defs>
<linearGradient id="paint0_linear_298_1794" x1="553.435" y1="456.153" x2="26" y2="456.153" gradientUnits="userSpaceOnUse">
<stop stop-color="#6935D9"/>
<stop offset="0.5" stop-color="#F83EE1"/>
<stop offset="0.80433" stop-color="#FC7E7F"/>
<stop offset="1" stop-color="#FFA444"/>
</linearGradient>
<linearGradient id="paint1_linear_298_1794" x1="449.924" y1="745.263" x2="449.924" y2="183.552" gradientUnits="userSpaceOnUse">
<stop stop-color="#F83EE1"/>
<stop offset="0.42768" stop-color="#BD3ADE"/>
<stop offset="1" stop-color="#6935D9"/>
</linearGradient>
<linearGradient id="paint2_linear_298_1794" x1="403.716" y1="531.513" x2="403.716" y2="90.9979" gradientUnits="userSpaceOnUse">
<stop stop-color="#6935D9"/>
<stop offset="0.51034" stop-color="#5E76ED"/>
<stop offset="1" stop-color="#55B1FF"/>
</linearGradient>
<linearGradient id="paint3_linear_298_1794" x1="553.434" y1="456.153" x2="25.9989" y2="456.153" gradientUnits="userSpaceOnUse">
<stop stop-color="#6935D9"/>
<stop offset="0.5" stop-color="#F83EE1"/>
<stop offset="0.80433" stop-color="#FC7E7F"/>
<stop offset="1" stop-color="#FFA444"/>
</linearGradient>
</defs>
</svg>