<svg width="181" height="35" viewBox="0 0 181 35" fill="none" xmlns="http://www.w3.org/2000/svg">
<g clip-path="url(#clip0_5793_2029)">
<path d="M69.9694 11.4141C69.6449 11.1025 69.2612 10.8516 68.8384 10.6745C68.4127 10.5014 67.9534 10.4142 67.49 10.4184H60.8837C60.4204 10.4142 59.9613 10.5014 59.5356 10.6745C58.6872 11.0374 58.0072 11.6797 57.6226 12.4817C57.4391 12.8848 57.3468 13.3198 57.3517 13.7587V17.1785C57.3479 17.6219 57.4421 18.0612 57.6285 18.4681C57.8115 18.8646 58.0751 19.2231 58.4045 19.5232C58.5666 19.6713 58.7414 19.8064 58.9271 19.9273C59.1152 20.0499 59.3151 20.1556 59.5241 20.2428C59.7351 20.331 59.9548 20.3993 60.18 20.4466C60.411 20.4952 60.647 20.5194 60.8837 20.5189H67.49C67.7267 20.5195 67.9627 20.4952 68.1937 20.4466C68.419 20.3993 68.6388 20.3311 68.8499 20.2428C69.0589 20.1555 69.2587 20.0499 69.4469 19.9273C69.6325 19.8065 69.8073 19.6713 69.9694 19.5232C70.2987 19.223 70.5624 18.8645 70.7455 18.4681C70.9319 18.0612 71.0262 17.6219 71.0223 17.1785V13.7587C71.027 13.3198 70.9348 12.8849 70.7514 12.4817C70.5637 12.0827 70.2984 11.7205 69.9694 11.4141ZM68.7945 17.3552C68.7944 17.5144 68.7567 17.6715 68.6841 17.8151C68.5382 18.1096 68.2878 18.3463 67.9764 18.4842C67.8246 18.5531 67.6584 18.5889 67.49 18.5889H60.8837C60.7154 18.5889 60.5493 18.5531 60.3976 18.4842C60.0862 18.3463 59.8358 18.1096 59.6899 17.8151C59.6173 17.6715 59.5796 17.5144 59.5795 17.3552V13.5821C59.5783 13.4168 59.6126 13.2529 59.6803 13.1005C59.8111 12.8036 60.0608 12.5676 60.3748 12.444C60.5358 12.3799 60.709 12.3474 60.8837 12.3484H67.49C67.6616 12.3475 67.8316 12.3788 67.9903 12.4405C68.149 12.5022 68.2932 12.593 68.4145 12.7078C68.5358 12.8225 68.6319 12.9589 68.6971 13.1089C68.7623 13.259 68.7954 13.4198 68.7945 13.5821V17.3552Z" fill="white"/>
<path d="M86.5994 10.4148H83.27L75.6261 15.8869V10.4186H73.3989V20.5188H75.6261V18.2786L80.196 15.0029L84.3299 20.515L87.0728 20.5227L81.9693 13.7297L86.5994 10.4148Z" fill="white"/>
<path d="M96.6079 10.3318C96.2748 10.3318 95.9366 10.5771 95.5934 11.0678L88.9451 20.5188H91.6608L96.6079 13.4341L101.555 20.5188H104.271L97.6226 11.0678C97.2791 10.5771 96.9409 10.3318 96.6079 10.3318Z" fill="white"/>
<path d="M105.691 16.324L114.895 16.3309V14.3938H105.691V16.324Z" fill="white"/>
<path d="M147.308 11.4141C146.984 11.1025 146.6 10.8516 146.177 10.6745C145.751 10.5014 145.292 10.4142 144.829 10.4184H138.223C137.759 10.4142 137.3 10.5014 136.874 10.6745C136.026 11.0374 135.346 11.6797 134.961 12.4817C134.778 12.8848 134.686 13.3198 134.691 13.7587V17.1785C134.687 17.6219 134.781 18.0612 134.967 18.4681C135.15 18.8646 135.414 19.2231 135.743 19.5232C135.905 19.6713 136.08 19.8065 136.266 19.9273C136.454 20.05 136.654 20.1556 136.863 20.2428C137.074 20.331 137.294 20.3993 137.519 20.4466C137.75 20.4952 137.986 20.5194 138.222 20.5189H144.829C145.066 20.5194 145.302 20.4952 145.533 20.4466C145.758 20.3993 145.978 20.3311 146.189 20.2428C146.398 20.1556 146.598 20.0499 146.786 19.9273C146.971 19.8064 147.146 19.6713 147.308 19.5232C147.638 19.223 147.901 18.8645 148.084 18.4681C148.271 18.0612 148.365 17.6219 148.361 17.1785V13.7587C148.366 13.3198 148.274 12.8849 148.09 12.4817C147.902 12.0827 147.637 11.7205 147.308 11.4141ZM146.133 17.3552C146.133 17.5144 146.096 17.6715 146.023 17.8151C145.877 18.1096 145.627 18.3463 145.315 18.4842C145.163 18.5531 144.997 18.5889 144.829 18.5889H138.223C138.054 18.5889 137.888 18.5531 137.736 18.4842C137.425 18.3463 137.175 18.1095 137.029 17.8151C136.956 17.6715 136.918 17.5144 136.918 17.3552V13.5821C136.917 13.4168 136.951 13.2529 137.019 13.1005C137.15 12.8036 137.4 12.5676 137.714 12.444C137.875 12.3799 138.048 12.3474 138.223 12.3484H144.829C145 12.3475 145.17 12.3788 145.329 12.4405C145.488 12.5022 145.632 12.593 145.753 12.7077C145.875 12.8225 145.971 12.9589 146.036 13.1089C146.101 13.259 146.134 13.4199 146.133 13.5821V17.3552Z" fill="white"/>
<path d="M167.329 10.4187V12.3481H173.051V20.5189H175.282V12.3481H181V10.4187H167.329Z" fill="white"/>
<path d="M150.956 20.519H153.187V16.324H163.234V14.3938H150.956V20.519Z" fill="white"/>
<path d="M151.68 10.5014C151.535 10.5532 151.403 10.6338 151.293 10.7376C151.183 10.8415 151.098 10.9663 151.043 11.1037C150.983 11.2547 150.953 11.415 150.956 11.5763V12.3483H164.622V10.4183H152.18C152.009 10.4162 151.84 10.4444 151.68 10.5014Z" fill="white"/>
<path d="M47.8523 12.8366L45.3021 10.4441H41.9573L46.3385 14.2683L47.8523 12.8366Z" fill="white"/>
<path d="M47.9067 15.1192V20.5189H50.138V15.7608L56.1607 10.4187H52.9525L47.9067 15.1192Z" fill="white"/>
<path d="M132.005 10.4183H121.416C121.026 10.4131 120.638 10.4705 120.268 10.5879C119.944 10.6922 119.642 10.8484 119.374 11.0496C119.122 11.2406 118.906 11.4705 118.735 11.7295C118.629 11.9289 118.54 12.1358 118.468 12.3482H132.005V10.4183Z" fill="white"/>
<path d="M118.317 14.3936H118.304C118.309 14.4181 118.313 14.4101 118.317 14.3936Z" fill="white"/>
<path d="M132.012 15.9717C131.895 15.7445 131.747 15.533 131.572 15.3424C131.392 15.1477 131.183 14.9793 130.952 14.8426C130.703 14.6971 130.434 14.586 130.153 14.5127C129.833 14.4303 129.502 14.3902 129.17 14.3935H118.361C118.444 14.67 118.567 14.9341 118.727 15.1783C118.898 15.4373 119.114 15.6672 119.366 15.8582C119.635 16.0598 119.938 16.216 120.262 16.3199C120.634 16.4374 121.024 16.4948 121.416 16.4895L129.129 16.5004C129.281 16.4971 129.432 16.5274 129.569 16.5887C129.686 16.6416 129.791 16.7161 129.878 16.8078C129.964 16.8995 130.03 17.0065 130.073 17.1226C130.113 17.2297 130.134 17.3425 130.135 17.4563C130.134 17.5841 130.113 17.7111 130.073 17.8332C130.032 17.9649 129.968 18.0892 129.884 18.2011C129.8 18.313 129.693 18.4075 129.569 18.4789C129.436 18.5541 129.284 18.5922 129.129 18.5889H118.605V20.5188H129.17C129.502 20.522 129.832 20.4808 130.151 20.3963C130.434 20.3205 130.704 20.2075 130.954 20.0606C131.187 19.9227 131.396 19.7525 131.575 19.5556C131.75 19.3633 131.898 19.1505 132.016 18.9225C132.133 18.6951 132.221 18.4554 132.279 18.2084C132.337 17.9616 132.366 17.7092 132.363 17.4563C132.363 17.1985 132.334 16.9414 132.275 16.6896C132.218 16.4413 132.13 16.2003 132.012 15.9717Z" fill="white"/>
<path d="M118.318 14.3935H118.361C118.356 14.3794 118.349 14.3664 118.345 14.3522C118.334 14.3112 118.326 14.3655 118.318 14.3935Z" fill="white"/>
<path d="M74.6079 27.7587H75.2362V24.9145H74.6079V27.7587ZM80.2316 25.4579H81.8426V27.7587H82.471V25.4579H84.081V24.9145H80.2316L80.2316 25.4579ZM94.9152 24.9866C94.6764 25.0889 94.485 25.2697 94.3766 25.4955C94.3249 25.609 94.299 25.7315 94.3004 25.8551V26.8181C94.2993 26.943 94.3258 27.0666 94.3782 27.1812C94.4298 27.2929 94.5041 27.3938 94.5968 27.4783C94.6424 27.5201 94.6916 27.5581 94.7439 27.5921C94.7969 27.6266 94.8531 27.6564 94.912 27.681C94.9714 27.7058 95.0333 27.725 95.0968 27.7384C95.1619 27.752 95.2283 27.7588 95.2949 27.7587H98.1604V27.2153H95.2949C95.2475 27.2152 95.2007 27.2052 95.158 27.1857C95.0703 27.1469 94.9998 27.0803 94.9587 26.9974C94.9383 26.9569 94.9276 26.9126 94.9276 26.8678V25.8054C94.9274 25.7597 94.9367 25.7144 94.9551 25.6721C94.9734 25.6298 95.0004 25.5914 95.0345 25.559C95.0687 25.5268 95.1093 25.5012 95.154 25.4838C95.1987 25.4665 95.2466 25.4577 95.2949 25.4579H98.1604V24.9145H95.2949C95.1644 24.9133 95.0351 24.9379 94.9152 24.9866ZM106.056 25.1949C105.965 25.1071 105.856 25.0365 105.737 24.9866C105.618 24.9378 105.488 24.9133 105.358 24.9145H103.497C103.367 24.9133 103.238 24.9378 103.118 24.9866C102.879 25.0889 102.688 25.2697 102.579 25.4955C102.527 25.609 102.502 25.7315 102.503 25.8551V26.8181C102.502 26.943 102.528 27.0667 102.581 27.1812C102.632 27.2929 102.707 27.3938 102.799 27.4783C102.845 27.5201 102.894 27.5581 102.946 27.5921C102.999 27.6266 103.056 27.6564 103.115 27.681C103.174 27.7058 103.236 27.725 103.299 27.7384C103.364 27.752 103.431 27.7588 103.497 27.7587H105.358C105.424 27.7588 105.491 27.752 105.556 27.7384C105.619 27.725 105.681 27.7058 105.741 27.681C105.799 27.6564 105.856 27.6266 105.909 27.5921C105.961 27.5581 106.01 27.52 106.056 27.4783C106.149 27.3938 106.223 27.2929 106.274 27.1812C106.327 27.0667 106.353 26.943 106.352 26.8181V25.8551C106.354 25.7315 106.328 25.609 106.276 25.4955C106.223 25.3831 106.149 25.2812 106.056 25.1949ZM105.725 26.8678C105.725 26.9127 105.714 26.957 105.694 26.9974C105.653 27.0802 105.582 27.1469 105.495 27.1857C105.452 27.2051 105.405 27.2152 105.358 27.2153H103.497C103.45 27.2152 103.403 27.2052 103.361 27.1857C103.273 27.1469 103.202 27.0803 103.161 26.9974C103.141 26.9569 103.13 26.9126 103.13 26.8678V25.8054C103.13 25.7597 103.139 25.7144 103.158 25.6721C103.176 25.6298 103.203 25.5914 103.237 25.559C103.271 25.5268 103.312 25.5012 103.357 25.4839C103.401 25.4665 103.449 25.4577 103.497 25.4579H105.358C105.406 25.4577 105.454 25.4665 105.499 25.4839C105.543 25.5013 105.584 25.5268 105.618 25.5591C105.652 25.5915 105.679 25.6299 105.698 25.6721C105.716 25.7144 105.725 25.7597 105.725 25.8054V26.8678ZM115.122 25.1075C115.106 25.0688 115.082 25.0336 115.052 25.0044C115.021 24.9751 114.983 24.9524 114.942 24.9379C114.897 24.9218 114.85 24.9139 114.802 24.9145H114.548C114.524 24.9145 114.499 24.9176 114.476 24.9236C114.452 24.9297 114.429 24.9384 114.407 24.9495C114.385 24.9606 114.365 24.9741 114.346 24.9896C114.328 25.0049 114.312 25.0224 114.298 25.0415L112.994 26.9095L111.69 25.0415C111.676 25.0224 111.66 25.0049 111.642 24.9896C111.623 24.9742 111.603 24.9607 111.581 24.9495C111.559 24.9384 111.536 24.9297 111.512 24.9236C111.489 24.9176 111.464 24.9145 111.44 24.9145H111.185C111.137 24.9139 111.09 24.9218 111.045 24.9379C111.004 24.9525 110.966 24.9751 110.936 25.0044C110.905 25.0336 110.881 25.0688 110.865 25.1075C110.848 25.1501 110.84 25.1952 110.84 25.2406L110.838 27.7587H111.467V25.8104L112.708 27.5758C112.723 27.5975 112.741 27.6206 112.761 27.645C112.781 27.6693 112.803 27.6917 112.828 27.712C112.851 27.7319 112.878 27.749 112.906 27.7627C112.933 27.776 112.963 27.783 112.993 27.7831C113.024 27.7831 113.054 27.7761 113.081 27.7627C113.109 27.749 113.136 27.7319 113.159 27.712C113.184 27.6916 113.206 27.6691 113.227 27.645C113.247 27.6205 113.265 27.5975 113.28 27.5758L114.52 25.8125V27.7587H115.149L115.147 25.2406C115.147 25.1952 115.139 25.15 115.122 25.1075ZM129.83 24.8901C129.736 24.8901 129.641 24.9592 129.544 25.0973L127.672 27.7587H128.437L129.83 25.7637L131.223 27.7587H131.988L130.116 25.0973C130.019 24.9592 129.924 24.8901 129.83 24.8901ZM139.452 24.9114V26.9837L139.367 26.9145L137.028 25.0404C136.977 24.9993 136.918 24.9675 136.855 24.9465C136.792 24.9255 136.727 24.9147 136.661 24.9145C136.607 24.9143 136.553 24.9224 136.501 24.9384C136.451 24.9535 136.405 24.9781 136.366 25.0105C136.326 25.0439 136.294 25.0849 136.272 25.1309C136.247 25.1843 136.235 25.2422 136.236 25.3005L136.237 27.7587H136.866V25.6865L136.951 25.7556L139.29 27.6296C139.341 27.6708 139.4 27.7027 139.463 27.7237C139.526 27.7446 139.591 27.7554 139.657 27.7556C139.711 27.7557 139.765 27.7475 139.817 27.7313C139.866 27.7158 139.912 27.6913 139.952 27.6592C139.992 27.626 140.024 27.5851 140.046 27.5392C140.071 27.4858 140.083 27.4279 140.082 27.3696L140.081 24.9114L139.452 24.9114ZM123.657 25.364C123.624 25.2998 123.583 25.2398 123.533 25.1857C123.483 25.1303 123.424 25.0823 123.358 25.0435C123.288 25.0022 123.212 24.9704 123.133 24.949C123.043 24.9252 122.95 24.9136 122.856 24.9145H120.174C120.126 24.9139 120.078 24.9218 120.034 24.9379C119.993 24.9525 119.955 24.9752 119.924 25.0044C119.894 25.0337 119.87 25.0688 119.854 25.1075C119.837 25.15 119.829 25.1952 119.83 25.2406L119.83 25.4579H122.844C122.888 25.4569 122.931 25.4664 122.969 25.4854C123.004 25.503 123.034 25.5276 123.058 25.5575C123.081 25.5883 123.099 25.6229 123.11 25.6596C123.121 25.6977 123.127 25.7372 123.126 25.7769C123.126 25.8166 123.12 25.8561 123.108 25.8942C123.097 25.9311 123.079 25.9657 123.055 25.9964C123.031 26.0261 123.001 26.0507 122.967 26.0685C122.929 26.0873 122.887 26.0968 122.844 26.0959H119.83L119.831 27.7587H120.458V26.6392H122.856C122.95 26.6402 123.043 26.6289 123.133 26.6058C123.212 26.5851 123.288 26.5538 123.358 26.5128C123.423 26.4743 123.482 26.4269 123.532 26.3722C123.582 26.3184 123.623 26.2588 123.656 26.1949C123.689 26.1303 123.714 26.0623 123.73 25.9922C123.747 25.9215 123.755 25.8493 123.755 25.7769C123.756 25.7057 123.748 25.6346 123.731 25.5651C123.715 25.4955 123.69 25.428 123.657 25.364ZM147.446 24.9145L146.025 26.175V27.7587H146.654V26.4189L148.35 24.9145H147.446ZM144.33 24.9145L145.579 26.0219L145.987 25.5835L145.234 24.9145H144.33Z" fill="url(#paint0_linear_5793_2029)"/>
<path d="M29.8031 19.4336L29.6223 18.2369C29.1145 15.6918 27.8198 13.3462 25.9019 11.4972L25.818 11.4092C25.7524 11.3361 25.6759 11.2675 25.6046 11.1998C25.5327 11.1318 25.528 11.1293 25.6012 11.1986C26.9858 12.511 27.7635 14.2893 27.7635 16.1433C27.7635 17.9973 26.986 19.7757 25.6014 21.0881C24.714 21.916 23.6174 22.5153 22.4159 22.829L21.7145 23.0251C18.8266 23.6518 15.8018 23.3767 13.0931 22.2412L12.8492 22.1397C10.9978 21.3193 9.35671 20.1287 8.03915 18.6501C6.72159 17.1715 5.75896 15.4402 5.21769 13.5756C5.01599 12.861 4.88058 12.1311 4.813 11.3943L2.4089 11.5925L2.40392 11.5878L2.39916 11.5925L0 11.7862C0.0930397 12.7915 0.280681 13.787 0.560695 14.7608C1.25169 17.2084 2.48989 19.4873 4.1917 21.4436C5.89352 23.4 8.01935 24.9882 10.4257 26.1012L10.8353 26.2857C14.5462 27.9206 18.7261 28.344 22.719 27.4895C22.8263 27.4709 22.9287 27.448 23.0311 27.4247L23.5383 27.305C23.6378 27.2848 23.9321 27.1955 23.9321 27.1955C25.8518 26.6474 27.598 25.6583 29.0149 24.3163C29.0468 24.2862 29.0733 24.2528 29.1048 24.2223C29.6458 22.68 29.8825 21.0568 29.8031 19.4336Z" fill="url(#paint1_linear_5793_2029)"/>
<path d="M34.4993 19.9409C34.5844 22.3682 34.1411 24.7861 33.197 27.0446C32.2528 29.3031 30.828 31.354 29.0108 33.07C28.2607 33.775 27.4507 34.4205 26.5888 34.9999L23.4802 31.5367L23.7853 31.2844C24.4224 30.842 25.0277 30.36 25.5971 29.8415C27.0189 28.4813 28.1156 26.8484 28.8131 25.053C29.5106 23.2577 29.7926 21.3417 29.6402 19.4344L29.4876 18.2802C29.4575 18.0521 29.3989 17.8235 29.3457 17.5995C29.2918 17.3727 29.2316 17.1474 29.1651 16.9235C28.7669 15.5833 28.1422 14.3127 27.315 13.1612C27.0361 12.7727 26.7355 12.3986 26.4145 12.0403C26.0883 11.6608 25.7302 11.3068 25.3438 10.9818C24.9796 10.6803 24.5899 10.4076 24.1786 10.1664C23.4444 9.74714 22.6385 9.45201 21.7972 9.29425C20.5488 9.05905 19.2574 9.13157 18.0472 9.50482C17.2238 9.75911 16.455 10.1502 15.7768 10.6597C15.556 10.8256 15.3454 11.0032 15.1461 11.1918C14.3971 11.896 13.8181 12.7451 13.4487 13.6808C14.3268 10.9673 16.1258 8.60296 18.5676 6.95367L18.7371 6.8682C20.1522 5.97069 21.7265 5.32134 23.3848 4.95117C25.2837 5.4079 27.0374 6.2928 28.4959 7.53021C28.5722 7.60252 28.6675 7.65664 28.7438 7.72879C28.9155 7.8729 29.0584 8.02508 29.2309 8.18823C29.3072 8.26038 29.3732 8.32381 29.4494 8.39614C31.3475 10.2764 32.7643 12.5433 33.5908 15.0226C34.1393 16.6128 34.4452 18.2689 34.4993 19.9409Z" fill="url(#paint2_linear_5793_2029)"/>
<path d="M34.5606 1.63618L32.5009 5.76654C31.7957 5.45601 31.0615 5.20843 30.3077 5.02704C28.3585 4.53308 26.3191 4.44498 24.3304 4.76883C22.3417 5.09267 20.451 5.82076 18.7887 6.90283L18.6361 6.99302C16.177 8.62439 14.3541 10.9759 13.4487 13.6845C13.4118 13.7703 13.3279 14.0247 13.3279 14.0247L13.2366 14.348C13.2217 14.4183 13.1627 14.6585 13.1627 14.6585C12.8822 15.8391 12.9331 17.0684 13.3103 18.2246C13.6875 19.3808 14.3778 20.4236 15.3128 21.2495C16.2477 22.0754 17.3948 22.6557 18.6402 22.9328C19.8856 23.2099 21.186 23.1741 22.4122 22.829L21.7066 23.0274C18.8077 23.6585 15.9416 23.9143 13.1953 22.778L12.6078 22.543C10.9868 21.8395 9.80614 20.4482 8.60465 19.2576C8.58472 19.2379 8.57908 19.1688 8.5715 19.1417C8.55871 19.0961 8.54622 19.0503 8.53404 19.0045C8.51063 18.9165 8.48835 18.8283 8.46719 18.7397C8.42497 18.5632 8.38723 18.3858 8.35397 18.2074C8.28769 17.8521 8.23929 17.4944 8.20876 17.1343C8.14819 16.4153 8.15804 15.6925 8.23818 14.9753C8.31816 14.2619 8.4608 13.5561 8.66462 12.8651C8.72652 12.6549 8.79553 12.4471 8.87165 12.2417C10.0744 8.6737 12.4621 5.56791 15.6801 3.38572L15.8708 3.25946C18.1163 1.75333 20.6857 0.734722 23.3957 0.276396C26.1056 -0.181929 28.889 -0.0686644 31.5473 0.6081C32.5806 0.869643 33.5887 1.21357 34.5606 1.63618Z" fill="url(#paint3_linear_5793_2029)"/>
<mask id="mask0_5793_2029" style="mask-type:luminance" maskUnits="userSpaceOnUse" x="8" y="0" width="27" height="24">
<path d="M34.5606 1.63618L32.5009 5.76654C31.7957 5.45601 31.0615 5.20843 30.3077 5.02704C28.3585 4.53308 26.3191 4.44498 24.3304 4.76883C22.3417 5.09268 20.451 5.82076 18.7887 6.90283L18.6361 6.99302C16.177 8.62439 14.3541 10.9759 13.4487 13.6845C13.4118 13.7703 13.3279 14.0247 13.3279 14.0247L13.2366 14.348C13.2217 14.4183 13.1627 14.6585 13.1627 14.6585C12.8822 15.8391 12.9331 17.0684 13.3103 18.2246C13.6875 19.3808 14.3778 20.4236 15.3128 21.2495C16.2477 22.0754 17.3948 22.6557 18.6402 22.9328C19.8856 23.2099 21.186 23.1741 22.4122 22.829L21.7066 23.0274C18.9944 23.94 16.0369 23.9658 13.3073 23.1008L12.0269 22.6877C10.4058 21.9843 9.80614 20.4482 8.60465 19.2576C8.58472 19.2379 8.57908 19.1688 8.5715 19.1418C8.55871 19.0961 8.54622 19.0503 8.53404 19.0045C8.51063 18.9165 8.48835 18.8283 8.46719 18.7398C8.42497 18.5632 8.38723 18.3858 8.35397 18.2075C8.28769 17.8522 8.23929 17.4944 8.20876 17.1343C8.14819 16.4153 8.15804 15.6925 8.23818 14.9753C8.31816 14.2619 8.4608 13.5561 8.66462 12.8652C8.72652 12.6549 8.79553 12.4471 8.87165 12.2417C10.0744 8.67371 12.4621 5.56791 15.6801 3.38572L15.8708 3.25946C18.1163 1.75333 20.6857 0.734722 23.3957 0.276396C26.1056 -0.181929 28.889 -0.0686644 31.5473 0.6081C32.5806 0.869643 33.5887 1.21357 34.5606 1.63618Z" fill="white"/>
</mask>
<g mask="url(#mask0_5793_2029)">
<path d="M29.8031 19.4336L29.6223 18.2369C29.1145 15.6918 27.8198 13.3462 25.9019 11.4972L25.818 11.4092C25.7524 11.3361 25.6759 11.2675 25.6046 11.1998C25.5327 11.1318 25.528 11.1293 25.6012 11.1986C26.9858 12.511 27.7635 14.2893 27.7635 16.1433C27.7635 17.9973 26.986 19.7757 25.6014 21.0881C24.714 21.916 23.6174 22.5153 22.4159 22.829L21.7145 23.0251C18.8266 23.6518 15.8018 23.3767 13.0931 22.2412L12.8492 22.1397C10.9978 21.3193 9.35671 20.1287 8.03915 18.6501C6.72159 17.1715 5.75896 15.4402 5.21769 13.5756C5.01599 12.861 4.88058 12.1311 4.813 11.3943L2.4089 11.5925L2.40392 11.5878L2.39916 11.5925L0 11.7862C0.0930397 12.7915 0.280681 13.787 0.560695 14.7608C1.25169 17.2084 2.48989 19.4873 4.1917 21.4436C5.89352 23.4 8.01935 24.9882 10.4257 26.1012L10.8353 26.2857C14.5462 27.9206 18.7261 28.344 22.719 27.4895C22.8263 27.4709 22.9287 27.448 23.0311 27.4247L23.5383 27.305C23.6378 27.2848 23.9321 27.1955 23.9321 27.1955C25.8518 26.6474 27.598 25.6583 29.0149 24.3163C29.0468 24.2862 29.0733 24.2528 29.1048 24.2223C29.6458 22.68 29.8825 21.0568 29.8031 19.4336Z" fill="url(#paint4_linear_5793_2029)"/>
</g>
</g>
<defs>
<linearGradient id="paint0_linear_5793_2029" x1="74.6079" y1="26.3366" x2="148.35" y2="26.3366" gradientUnits="userSpaceOnUse">
<stop stop-color="#6935D9"/>
<stop offset="0.5" stop-color="#F83EE1"/>
<stop offset="0.80433" stop-color="#FC7E7F"/>
<stop offset="1" stop-color="#FFA444"/>
</linearGradient>
<linearGradient id="paint1_linear_5793_2029" x1="29.8339" y1="19.5341" x2="0" y2="19.5341" gradientUnits="userSpaceOnUse">
<stop stop-color="#6935D9"/>
<stop offset="0.5" stop-color="#F83EE1"/>
<stop offset="0.80433" stop-color="#FC7E7F"/>
<stop offset="1" stop-color="#FFA444"/>
</linearGradient>
<linearGradient id="paint2_linear_5793_2029" x1="23.9788" y1="34.9999" x2="23.9788" y2="4.95115" gradientUnits="userSpaceOnUse">
<stop stop-color="#F83EE1"/>
<stop offset="0.42768" stop-color="#BD3ADE"/>
<stop offset="1" stop-color="#6935D9"/>
</linearGradient>
<linearGradient id="paint3_linear_5793_2029" x1="21.3651" y1="23.5655" x2="21.3651" y2="0.00010368" gradientUnits="userSpaceOnUse">
<stop stop-color="#6935D9"/>
<stop offset="0.51034" stop-color="#5E76ED"/>
<stop offset="1" stop-color="#55B1FF"/>
</linearGradient>
<linearGradient id="paint4_linear_5793_2029" x1="29.8339" y1="19.5341" x2="0" y2="19.5341" gradientUnits="userSpaceOnUse">
<stop stop-color="#6935D9"/>
<stop offset="0.5" stop-color="#F83EE1"/>
<stop offset="0.80433" stop-color="#FC7E7F"/>
<stop offset="1" stop-color="#FFA444"/>
</linearGradient>
<clipPath id="clip0_5793_2029">
<rect width="181" height="35" fill="white"/>
</clipPath>
</defs>
</svg>
