<svg xmlns="http://www.w3.org/2000/svg" style="display:none;">

    <symbol id="calendar" viewBox="0 0 32 32" fill="none" xmlns="http://www.w3.org/2000/svg">
        <g clip-path="url(#clip0_149_2052)">
        <path opacity="0.5" d="M2 7C2 5.67392 2.52678 4.40215 3.46447 3.46447C4.40215 2.52678 5.67392 2 7 2H21C22.3261 2 23.5979 2.52678 24.5355 3.46447C25.4732 4.40215 26 5.67392 26 7V12.464C25.348 12.744 24.738 13.15 24.206 13.682L24 13.888V10H4V21C4 21.7957 4.31607 22.5587 4.87868 23.1213C5.44129 23.6839 6.20435 24 7 24H13.972C13.518 24.6 13.172 25.278 12.952 26H7C5.67392 26 4.40215 25.4732 3.46447 24.5355C2.52678 23.5979 2 22.3261 2 21V7ZM20.708 16.292C20.876 16.46 20.97 16.672 20.994 16.892L15.894 21.994C15.7067 21.9736 15.529 21.9007 15.3813 21.7837C15.2337 21.6667 15.122 21.5104 15.0593 21.3327C14.9966 21.155 14.9854 20.9633 15.0269 20.7795C15.0684 20.5958 15.161 20.4275 15.294 20.294L18.584 17L15.292 13.708C15.199 13.615 15.1253 13.5046 15.075 13.3832C15.0246 13.2617 14.9987 13.1315 14.9987 13C14.9987 12.8685 15.0246 12.7383 15.075 12.6168C15.1253 12.4954 15.199 12.385 15.292 12.292C15.385 12.199 15.4954 12.1253 15.6168 12.075C15.7383 12.0246 15.8685 11.9987 16 11.9987C16.1315 11.9987 16.2617 12.0246 16.3832 12.075C16.5046 12.1253 16.615 12.199 16.708 12.292L20.708 16.292ZM12.708 12.292C12.8011 12.3849 12.875 12.4952 12.9254 12.6167C12.9758 12.7382 13.0018 12.8685 13.0018 13C13.0018 13.1315 12.9758 13.2618 12.9254 13.3833C12.875 13.5048 12.8011 13.6151 12.708 13.708L9.414 17L12.708 20.292C12.8958 20.4798 13.0013 20.7345 13.0013 21C13.0013 21.2656 12.8958 21.5202 12.708 21.708C12.5202 21.8958 12.2656 22.0013 12 22.0013C11.7344 22.0013 11.4798 21.8958 11.292 21.708L7.292 17.708C7.19887 17.6151 7.12499 17.5048 7.07457 17.3833C7.02416 17.2618 6.99821 17.1315 6.99821 17C6.99821 16.8685 7.02416 16.7382 7.07457 16.6167C7.12499 16.4952 7.19887 16.3849 7.292 16.292L11.292 12.292C11.3849 12.1989 11.4952 12.125 11.6167 12.0746C11.7382 12.0242 11.8685 11.9982 12 11.9982C12.1315 11.9982 12.2618 12.0242 12.3833 12.0746C12.5048 12.125 12.6151 12.1989 12.708 12.292ZM15.96 24.754L25.62 15.094C26.3218 14.3928 27.2733 13.999 28.2654 13.9994C29.2575 13.9998 30.2088 14.3942 30.91 15.096C31.6112 15.7978 32.005 16.7493 32.0046 17.7414C32.0042 18.7335 31.6098 19.6848 30.908 20.386L21.248 30.044C20.6851 30.6068 19.98 31.0063 19.208 31.2L16.212 31.948C15.9141 32.0222 15.6021 32.0182 15.3062 31.9362C15.0103 31.8542 14.7407 31.6971 14.5235 31.4801C14.3063 31.2631 14.1489 30.9936 14.0667 30.6978C13.9844 30.402 13.98 30.09 14.054 29.792L14.804 26.796C14.9977 26.024 15.3972 25.3189 15.96 24.756" fill="white"/>
        <path d="M2 7C2 5.67392 2.52678 4.40215 3.46447 3.46447C4.40215 2.52678 5.67392 2 7 2H21C22.3261 2 23.5979 2.52678 24.5355 3.46447C25.4732 4.40215 26 5.67392 26 7V12.464C25.348 12.744 24.738 13.15 24.206 13.682L24 13.888V10H4V21C4 21.7957 4.31607 22.5587 4.87868 23.1213C5.44129 23.6839 6.20435 24 7 24H13.972C13.518 24.6 13.172 25.278 12.952 26H7C5.67392 26 4.40215 25.4732 3.46447 24.5355C2.52678 23.5979 2 22.3261 2 21V7ZM20.708 16.292C20.876 16.46 20.97 16.672 20.994 16.892L15.894 21.994C15.7067 21.9736 15.529 21.9007 15.3813 21.7837C15.2337 21.6667 15.122 21.5104 15.0593 21.3327C14.9966 21.155 14.9854 20.9633 15.0269 20.7795C15.0684 20.5958 15.161 20.4275 15.294 20.294L18.584 17L15.292 13.708C15.199 13.615 15.1253 13.5046 15.075 13.3832C15.0246 13.2617 14.9987 13.1315 14.9987 13C14.9987 12.8685 15.0246 12.7383 15.075 12.6168C15.1253 12.4954 15.199 12.385 15.292 12.292C15.385 12.199 15.4954 12.1253 15.6168 12.075C15.7383 12.0246 15.8685 11.9987 16 11.9987C16.1315 11.9987 16.2617 12.0246 16.3832 12.075C16.5046 12.1253 16.615 12.199 16.708 12.292L20.708 16.292ZM12.708 12.292C12.8011 12.3849 12.875 12.4952 12.9254 12.6167C12.9758 12.7382 13.0018 12.8685 13.0018 13C13.0018 13.1315 12.9758 13.2618 12.9254 13.3833C12.875 13.5048 12.8011 13.6151 12.708 13.708L9.414 17L12.708 20.292C12.8958 20.4798 13.0013 20.7345 13.0013 21C13.0013 21.2656 12.8958 21.5202 12.708 21.708C12.5202 21.8958 12.2656 22.0013 12 22.0013C11.7344 22.0013 11.4798 21.8958 11.292 21.708L7.292 17.708C7.19887 17.6151 7.12499 17.5048 7.07457 17.3833C7.02416 17.2618 6.99821 17.1315 6.99821 17C6.99821 16.8685 7.02416 16.7382 7.07457 16.6167C7.12499 16.4952 7.19887 16.3849 7.292 16.292L11.292 12.292C11.3849 12.1989 11.4952 12.125 11.6167 12.0746C11.7382 12.0242 11.8685 11.9982 12 11.9982C12.1315 11.9982 12.2618 12.0242 12.3833 12.0746C12.5048 12.125 12.6151 12.1989 12.708 12.292Z" fill="white"/>
        </g>
        <defs>
        <clipPath id="clip0_149_2052">
        <rect width="32" height="32" fill="white"/>
        </clipPath>
        </defs>
    </symbol>

    <symbol id="openai" viewBox="0 0 24 24" fill="none">
        <path 
            d="M14.1 13.2999L8 16.7999L3.8 14.1999C2.99912 13.7622 2.37203 13.0637 2.02282 12.2205C1.67361 11.3772 1.62327 10.4399 1.88017 9.56413C2.13707 8.68833 2.68576 7.92673 3.43515 7.40574C4.18454 6.88475 5.08956 6.6357 6 6.69994
            M12 14.4999L6 10.9999V5.99994C5.93569 5.07114 6.19738 4.149 6.73998 3.39244C7.28258 2.63587 8.0721 2.09228 8.97247 1.85534C9.87284 1.6184 10.8277 1.70296 11.6724 2.09444C12.5171 2.48592 13.1988 3.1598 13.6 3.99994
            M9.9 13.2999V6.19994L14.3 3.59994C15.0925 3.11304 16.03 2.91755 16.9511 3.04711C17.8721 3.17667 18.7193 3.62318 19.3467 4.30983C19.9742 4.99648 20.3427 5.88033 20.3889 6.80933C20.4352 7.73833 20.1562 8.6544 19.6 9.39994
            M9.9 10.6999L16 7.19994L20.2 9.79994C21.0009 10.2377 21.628 10.9361 21.9772 11.7794C22.3264 12.6226 22.3767 13.56 22.1198 14.4358C21.8629 15.3116 21.3142 16.0732 20.5648 16.5942C19.8155 17.1151 18.9104 17.3642 18 17.2999
            M12 9.49994L18 12.9999V17.9999C18.0643 18.9287 17.8026 19.8509 17.26 20.6075C16.7174 21.364 15.9279 21.9076 15.0275 22.1445C14.1272 22.3815 13.1723 22.2969 12.3276 21.9055C11.4829 21.514 10.8012 20.8401 10.4 19.9999
            M14.1 10.6999V17.7999L9.7 20.3999C8.90747 20.8869 7.97003 21.0823 7.04894 20.9528C6.12786 20.8232 5.28072 20.3767 4.65327 19.6901C4.02582 19.0034 3.65728 18.1196 3.61105 17.1906C3.56483 16.2616 3.84381 15.3455 4.4 14.5999"
            stroke="currentColor"
            stroke-width="2"
            stroke-linecap="round"
            stroke-linejoin="round"
            fill="url(#grad-openai)"
        />
    </symbol>

    <symbol id="star" width="24" height="24" viewBox="0 0 24 24" fill="none" xmlns="http://www.w3.org/2000/svg">
        <path d="M5.825 21L7.45 13.975L2 9.25L9.2 8.625L12 2L14.8 8.625L22 9.25L16.55 13.975L18.175 21L12 17.275L5.825 21Z" fill="#FE9D4F"/>
    <symbol>

    <symbol id="phone" width="24" height="24" viewBox="0 0 24 24" fill="none" xmlns="http://www.w3.org/2000/svg">
        <path d="M16.5559 12.906L16.1009 13.359C16.1009 13.359 15.0179 14.435 12.0629 11.497C9.10788 8.55898 10.1909 7.48298 10.1909 7.48298L10.4769 7.19698C11.1839 6.49498 11.2509 5.36698 10.6339 4.54298L9.37388 2.85998C8.60988 1.83998 7.13488 1.70498 6.25988 2.57498L4.68988 4.13498C4.25688 4.56698 3.96688 5.12498 4.00188 5.74498C4.09188 7.33198 4.80988 10.745 8.81388 14.727C13.0609 18.949 17.0459 19.117 18.6749 18.965C19.1909 18.917 19.6389 18.655 19.9999 18.295L21.4199 16.883C22.3799 15.93 22.1099 14.295 20.8819 13.628L18.9719 12.589C18.1659 12.152 17.1859 12.28 16.5559 12.906Z" fill="#57A6FB"/>
    <symbol>

    <symbol id="email" width="24" height="24" viewBox="0 0 24 24" fill="none" xmlns="http://www.w3.org/2000/svg">
        <path d="M16 12.9V17.1C16 20.6 14.6 22 11.1 22H6.9C3.4 22 2 20.6 2 17.1V12.9C2 9.4 3.4 8 6.9 8H11.1C14.6 8 16 9.4 16 12.9Z" fill="#57A6FB"/>
        <path d="M17.1 2H12.9C9.81693 2 8.37099 3.09409 8.06975 5.73901C8.00673 6.29235 8.465 6.75 9.02191 6.75H11.1C15.3 6.75 17.25 8.7 17.25 12.9V14.9781C17.25 15.535 17.7077 15.9933 18.261 15.9303C20.9059 15.629 22 14.1831 22 11.1V6.9C22 3.4 20.6 2 17.1 2Z" fill="#57A6FB"/>
    </symbol>

</svg>