<svg xmlns="http://www.w3.org/2000/svg" style="display:none;">

    <symbol id="calendar" viewBox="0 0 32 32" fill="none" xmlns="http://www.w3.org/2000/svg">
        <g clip-path="url(#clip0_149_2052)">
        <path opacity="0.5" d="M2 7C2 5.67392 2.52678 4.40215 3.46447 3.46447C4.40215 2.52678 5.67392 2 7 2H21C22.3261 2 23.5979 2.52678 24.5355 3.46447C25.4732 4.40215 26 5.67392 26 7V12.464C25.348 12.744 24.738 13.15 24.206 13.682L24 13.888V10H4V21C4 21.7957 4.31607 22.5587 4.87868 23.1213C5.44129 23.6839 6.20435 24 7 24H13.972C13.518 24.6 13.172 25.278 12.952 26H7C5.67392 26 4.40215 25.4732 3.46447 24.5355C2.52678 23.5979 2 22.3261 2 21V7ZM20.708 16.292C20.876 16.46 20.97 16.672 20.994 16.892L15.894 21.994C15.7067 21.9736 15.529 21.9007 15.3813 21.7837C15.2337 21.6667 15.122 21.5104 15.0593 21.3327C14.9966 21.155 14.9854 20.9633 15.0269 20.7795C15.0684 20.5958 15.161 20.4275 15.294 20.294L18.584 17L15.292 13.708C15.199 13.615 15.1253 13.5046 15.075 13.3832C15.0246 13.2617 14.9987 13.1315 14.9987 13C14.9987 12.8685 15.0246 12.7383 15.075 12.6168C15.1253 12.4954 15.199 12.385 15.292 12.292C15.385 12.199 15.4954 12.1253 15.6168 12.075C15.7383 12.0246 15.8685 11.9987 16 11.9987C16.1315 11.9987 16.2617 12.0246 16.3832 12.075C16.5046 12.1253 16.615 12.199 16.708 12.292L20.708 16.292ZM12.708 12.292C12.8011 12.3849 12.875 12.4952 12.9254 12.6167C12.9758 12.7382 13.0018 12.8685 13.0018 13C13.0018 13.1315 12.9758 13.2618 12.9254 13.3833C12.875 13.5048 12.8011 13.6151 12.708 13.708L9.414 17L12.708 20.292C12.8958 20.4798 13.0013 20.7345 13.0013 21C13.0013 21.2656 12.8958 21.5202 12.708 21.708C12.5202 21.8958 12.2656 22.0013 12 22.0013C11.7344 22.0013 11.4798 21.8958 11.292 21.708L7.292 17.708C7.19887 17.6151 7.12499 17.5048 7.07457 17.3833C7.02416 17.2618 6.99821 17.1315 6.99821 17C6.99821 16.8685 7.02416 16.7382 7.07457 16.6167C7.12499 16.4952 7.19887 16.3849 7.292 16.292L11.292 12.292C11.3849 12.1989 11.4952 12.125 11.6167 12.0746C11.7382 12.0242 11.8685 11.9982 12 11.9982C12.1315 11.9982 12.2618 12.0242 12.3833 12.0746C12.5048 12.125 12.6151 12.1989 12.708 12.292ZM15.96 24.754L25.62 15.094C26.3218 14.3928 27.2733 13.999 28.2654 13.9994C29.2575 13.9998 30.2088 14.3942 30.91 15.096C31.6112 15.7978 32.005 16.7493 32.0046 17.7414C32.0042 18.7335 31.6098 19.6848 30.908 20.386L21.248 30.044C20.6851 30.6068 19.98 31.0063 19.208 31.2L16.212 31.948C15.9141 32.0222 15.6021 32.0182 15.3062 31.9362C15.0103 31.8542 14.7407 31.6971 14.5235 31.4801C14.3063 31.2631 14.1489 30.9936 14.0667 30.6978C13.9844 30.402 13.98 30.09 14.054 29.792L14.804 26.796C14.9977 26.024 15.3972 25.3189 15.96 24.756" fill="white"/>
        <path d="M2 7C2 5.67392 2.52678 4.40215 3.46447 3.46447C4.40215 2.52678 5.67392 2 7 2H21C22.3261 2 23.5979 2.52678 24.5355 3.46447C25.4732 4.40215 26 5.67392 26 7V12.464C25.348 12.744 24.738 13.15 24.206 13.682L24 13.888V10H4V21C4 21.7957 4.31607 22.5587 4.87868 23.1213C5.44129 23.6839 6.20435 24 7 24H13.972C13.518 24.6 13.172 25.278 12.952 26H7C5.67392 26 4.40215 25.4732 3.46447 24.5355C2.52678 23.5979 2 22.3261 2 21V7ZM20.708 16.292C20.876 16.46 20.97 16.672 20.994 16.892L15.894 21.994C15.7067 21.9736 15.529 21.9007 15.3813 21.7837C15.2337 21.6667 15.122 21.5104 15.0593 21.3327C14.9966 21.155 14.9854 20.9633 15.0269 20.7795C15.0684 20.5958 15.161 20.4275 15.294 20.294L18.584 17L15.292 13.708C15.199 13.615 15.1253 13.5046 15.075 13.3832C15.0246 13.2617 14.9987 13.1315 14.9987 13C14.9987 12.8685 15.0246 12.7383 15.075 12.6168C15.1253 12.4954 15.199 12.385 15.292 12.292C15.385 12.199 15.4954 12.1253 15.6168 12.075C15.7383 12.0246 15.8685 11.9987 16 11.9987C16.1315 11.9987 16.2617 12.0246 16.3832 12.075C16.5046 12.1253 16.615 12.199 16.708 12.292L20.708 16.292ZM12.708 12.292C12.8011 12.3849 12.875 12.4952 12.9254 12.6167C12.9758 12.7382 13.0018 12.8685 13.0018 13C13.0018 13.1315 12.9758 13.2618 12.9254 13.3833C12.875 13.5048 12.8011 13.6151 12.708 13.708L9.414 17L12.708 20.292C12.8958 20.4798 13.0013 20.7345 13.0013 21C13.0013 21.2656 12.8958 21.5202 12.708 21.708C12.5202 21.8958 12.2656 22.0013 12 22.0013C11.7344 22.0013 11.4798 21.8958 11.292 21.708L7.292 17.708C7.19887 17.6151 7.12499 17.5048 7.07457 17.3833C7.02416 17.2618 6.99821 17.1315 6.99821 17C6.99821 16.8685 7.02416 16.7382 7.07457 16.6167C7.12499 16.4952 7.19887 16.3849 7.292 16.292L11.292 12.292C11.3849 12.1989 11.4952 12.125 11.6167 12.0746C11.7382 12.0242 11.8685 11.9982 12 11.9982C12.1315 11.9982 12.2618 12.0242 12.3833 12.0746C12.5048 12.125 12.6151 12.1989 12.708 12.292Z" fill="white"/>
        </g>
        <defs>
        <clipPath id="clip0_149_2052">
        <rect width="32" height="32" fill="white"/>
        </clipPath>
        </defs>
    </symbol>

</svg>