<svg xmlns="http://www.w3.org/2000/svg" style="display:none;">

    <symbol id="calendar" viewBox="0 0 32 32" fill="none" xmlns="http://www.w3.org/2000/svg">
        <g clip-path="url(#clip0_149_2052)">
        <path opacity="0.5" d="M2 7C2 5.67392 2.52678 4.40215 3.46447 3.46447C4.40215 2.52678 5.67392 2 7 2H21C22.3261 2 23.5979 2.52678 24.5355 3.46447C25.4732 4.40215 26 5.67392 26 7V12.464C25.348 12.744 24.738 13.15 24.206 13.682L24 13.888V10H4V21C4 21.7957 4.31607 22.5587 4.87868 23.1213C5.44129 23.6839 6.20435 24 7 24H13.972C13.518 24.6 13.172 25.278 12.952 26H7C5.67392 26 4.40215 25.4732 3.46447 24.5355C2.52678 23.5979 2 22.3261 2 21V7ZM20.708 16.292C20.876 16.46 20.97 16.672 20.994 16.892L15.894 21.994C15.7067 21.9736 15.529 21.9007 15.3813 21.7837C15.2337 21.6667 15.122 21.5104 15.0593 21.3327C14.9966 21.155 14.9854 20.9633 15.0269 20.7795C15.0684 20.5958 15.161 20.4275 15.294 20.294L18.584 17L15.292 13.708C15.199 13.615 15.1253 13.5046 15.075 13.3832C15.0246 13.2617 14.9987 13.1315 14.9987 13C14.9987 12.8685 15.0246 12.7383 15.075 12.6168C15.1253 12.4954 15.199 12.385 15.292 12.292C15.385 12.199 15.4954 12.1253 15.6168 12.075C15.7383 12.0246 15.8685 11.9987 16 11.9987C16.1315 11.9987 16.2617 12.0246 16.3832 12.075C16.5046 12.1253 16.615 12.199 16.708 12.292L20.708 16.292ZM12.708 12.292C12.8011 12.3849 12.875 12.4952 12.9254 12.6167C12.9758 12.7382 13.0018 12.8685 13.0018 13C13.0018 13.1315 12.9758 13.2618 12.9254 13.3833C12.875 13.5048 12.8011 13.6151 12.708 13.708L9.414 17L12.708 20.292C12.8958 20.4798 13.0013 20.7345 13.0013 21C13.0013 21.2656 12.8958 21.5202 12.708 21.708C12.5202 21.8958 12.2656 22.0013 12 22.0013C11.7344 22.0013 11.4798 21.8958 11.292 21.708L7.292 17.708C7.19887 17.6151 7.12499 17.5048 7.07457 17.3833C7.02416 17.2618 6.99821 17.1315 6.99821 17C6.99821 16.8685 7.02416 16.7382 7.07457 16.6167C7.12499 16.4952 7.19887 16.3849 7.292 16.292L11.292 12.292C11.3849 12.1989 11.4952 12.125 11.6167 12.0746C11.7382 12.0242 11.8685 11.9982 12 11.9982C12.1315 11.9982 12.2618 12.0242 12.3833 12.0746C12.5048 12.125 12.6151 12.1989 12.708 12.292ZM15.96 24.754L25.62 15.094C26.3218 14.3928 27.2733 13.999 28.2654 13.9994C29.2575 13.9998 30.2088 14.3942 30.91 15.096C31.6112 15.7978 32.005 16.7493 32.0046 17.7414C32.0042 18.7335 31.6098 19.6848 30.908 20.386L21.248 30.044C20.6851 30.6068 19.98 31.0063 19.208 31.2L16.212 31.948C15.9141 32.0222 15.6021 32.0182 15.3062 31.9362C15.0103 31.8542 14.7407 31.6971 14.5235 31.4801C14.3063 31.2631 14.1489 30.9936 14.0667 30.6978C13.9844 30.402 13.98 30.09 14.054 29.792L14.804 26.796C14.9977 26.024 15.3972 25.3189 15.96 24.756" fill="white"/>
        <path d="M2 7C2 5.67392 2.52678 4.40215 3.46447 3.46447C4.40215 2.52678 5.67392 2 7 2H21C22.3261 2 23.5979 2.52678 24.5355 3.46447C25.4732 4.40215 26 5.67392 26 7V12.464C25.348 12.744 24.738 13.15 24.206 13.682L24 13.888V10H4V21C4 21.7957 4.31607 22.5587 4.87868 23.1213C5.44129 23.6839 6.20435 24 7 24H13.972C13.518 24.6 13.172 25.278 12.952 26H7C5.67392 26 4.40215 25.4732 3.46447 24.5355C2.52678 23.5979 2 22.3261 2 21V7ZM20.708 16.292C20.876 16.46 20.97 16.672 20.994 16.892L15.894 21.994C15.7067 21.9736 15.529 21.9007 15.3813 21.7837C15.2337 21.6667 15.122 21.5104 15.0593 21.3327C14.9966 21.155 14.9854 20.9633 15.0269 20.7795C15.0684 20.5958 15.161 20.4275 15.294 20.294L18.584 17L15.292 13.708C15.199 13.615 15.1253 13.5046 15.075 13.3832C15.0246 13.2617 14.9987 13.1315 14.9987 13C14.9987 12.8685 15.0246 12.7383 15.075 12.6168C15.1253 12.4954 15.199 12.385 15.292 12.292C15.385 12.199 15.4954 12.1253 15.6168 12.075C15.7383 12.0246 15.8685 11.9987 16 11.9987C16.1315 11.9987 16.2617 12.0246 16.3832 12.075C16.5046 12.1253 16.615 12.199 16.708 12.292L20.708 16.292ZM12.708 12.292C12.8011 12.3849 12.875 12.4952 12.9254 12.6167C12.9758 12.7382 13.0018 12.8685 13.0018 13C13.0018 13.1315 12.9758 13.2618 12.9254 13.3833C12.875 13.5048 12.8011 13.6151 12.708 13.708L9.414 17L12.708 20.292C12.8958 20.4798 13.0013 20.7345 13.0013 21C13.0013 21.2656 12.8958 21.5202 12.708 21.708C12.5202 21.8958 12.2656 22.0013 12 22.0013C11.7344 22.0013 11.4798 21.8958 11.292 21.708L7.292 17.708C7.19887 17.6151 7.12499 17.5048 7.07457 17.3833C7.02416 17.2618 6.99821 17.1315 6.99821 17C6.99821 16.8685 7.02416 16.7382 7.07457 16.6167C7.12499 16.4952 7.19887 16.3849 7.292 16.292L11.292 12.292C11.3849 12.1989 11.4952 12.125 11.6167 12.0746C11.7382 12.0242 11.8685 11.9982 12 11.9982C12.1315 11.9982 12.2618 12.0242 12.3833 12.0746C12.5048 12.125 12.6151 12.1989 12.708 12.292Z" fill="white"/>
        </g>
        <defs>
        <clipPath id="clip0_149_2052">
        <rect width="32" height="32" fill="white"/>
        </clipPath>
        </defs>
    </symbol>

    <symbol id="openai" viewBox="0 0 24 24" fill="none">
        <path 
            d="M14.1 13.2999L8 16.7999L3.8 14.1999C2.99912 13.7622 2.37203 13.0637 2.02282 12.2205C1.67361 11.3772 1.62327 10.4399 1.88017 9.56413C2.13707 8.68833 2.68576 7.92673 3.43515 7.40574C4.18454 6.88475 5.08956 6.6357 6 6.69994
            M12 14.4999L6 10.9999V5.99994C5.93569 5.07114 6.19738 4.149 6.73998 3.39244C7.28258 2.63587 8.0721 2.09228 8.97247 1.85534C9.87284 1.6184 10.8277 1.70296 11.6724 2.09444C12.5171 2.48592 13.1988 3.1598 13.6 3.99994
            M9.9 13.2999V6.19994L14.3 3.59994C15.0925 3.11304 16.03 2.91755 16.9511 3.04711C17.8721 3.17667 18.7193 3.62318 19.3467 4.30983C19.9742 4.99648 20.3427 5.88033 20.3889 6.80933C20.4352 7.73833 20.1562 8.6544 19.6 9.39994
            M9.9 10.6999L16 7.19994L20.2 9.79994C21.0009 10.2377 21.628 10.9361 21.9772 11.7794C22.3264 12.6226 22.3767 13.56 22.1198 14.4358C21.8629 15.3116 21.3142 16.0732 20.5648 16.5942C19.8155 17.1151 18.9104 17.3642 18 17.2999
            M12 9.49994L18 12.9999V17.9999C18.0643 18.9287 17.8026 19.8509 17.26 20.6075C16.7174 21.364 15.9279 21.9076 15.0275 22.1445C14.1272 22.3815 13.1723 22.2969 12.3276 21.9055C11.4829 21.514 10.8012 20.8401 10.4 19.9999
            M14.1 10.6999V17.7999L9.7 20.3999C8.90747 20.8869 7.97003 21.0823 7.04894 20.9528C6.12786 20.8232 5.28072 20.3767 4.65327 19.6901C4.02582 19.0034 3.65728 18.1196 3.61105 17.1906C3.56483 16.2616 3.84381 15.3455 4.4 14.5999"
            stroke="currentColor"
            stroke-width="2"
            stroke-linecap="round"
            stroke-linejoin="round"
            fill="url(#grad-openai)"
        />
    </symbol>

    <symbol id="star" width="24" height="24" viewBox="0 0 24 24" fill="none" xmlns="http://www.w3.org/2000/svg">
        <path d="M5.825 21L7.45 13.975L2 9.25L9.2 8.625L12 2L14.8 8.625L22 9.25L16.55 13.975L18.175 21L12 17.275L5.825 21Z" fill="#FE9D4F"/>
    <symbol>

    <symbol id="phone" width="24" height="24" viewBox="0 0 24 24" fill="none" xmlns="http://www.w3.org/2000/svg">
        <path d="M16.5559 12.906L16.1009 13.359C16.1009 13.359 15.0179 14.435 12.0629 11.497C9.10788 8.55898 10.1909 7.48298 10.1909 7.48298L10.4769 7.19698C11.1839 6.49498 11.2509 5.36698 10.6339 4.54298L9.37388 2.85998C8.60988 1.83998 7.13488 1.70498 6.25988 2.57498L4.68988 4.13498C4.25688 4.56698 3.96688 5.12498 4.00188 5.74498C4.09188 7.33198 4.80988 10.745 8.81388 14.727C13.0609 18.949 17.0459 19.117 18.6749 18.965C19.1909 18.917 19.6389 18.655 19.9999 18.295L21.4199 16.883C22.3799 15.93 22.1099 14.295 20.8819 13.628L18.9719 12.589C18.1659 12.152 17.1859 12.28 16.5559 12.906Z" fill="#57A6FB"/>
    <symbol>

    <symbol id="arrow-right" width="24" height="24" viewBox="0 0 24 24" fill="none" xmlns="http://www.w3.org/2000/svg">
        <path d="M15.09 4.07992L8.57 10.5999C7.8 11.3699 7.8 12.6299 8.57 13.3999L15.09 19.9199" stroke="white" stroke-width="1.5" stroke-miterlimit="10" stroke-linecap="round" stroke-linejoin="round"/>
    </symbol>


    <symbol id="copy" viewBox="0 0 16 16" fill="none" xmlns="http://www.w3.org/2000/svg">
        <path d="M10.6667 8.60016V11.4002C10.6667 13.7335 9.73333 14.6668 7.39999 14.6668H4.59999C2.26666 14.6668 1.33333 13.7335 1.33333 11.4002V8.60016C1.33333 6.26683 2.26666 5.3335 4.59999 5.3335H7.39999C9.73333 5.3335 10.6667 6.26683 10.6667 8.60016Z" stroke="#57A6FB" stroke-width="1.5" stroke-linecap="round" stroke-linejoin="round"/>
        <path d="M14.6667 4.60016V7.40016C14.6667 9.7335 13.7333 10.6668 11.4 10.6668H10.6667V8.60016C10.6667 6.26683 9.73333 5.3335 7.4 5.3335H5.33333V4.60016C5.33333 2.26683 6.26666 1.3335 8.59999 1.3335H11.4C13.7333 1.3335 14.6667 2.26683 14.6667 4.60016Z" stroke="#57A6FB" stroke-width="1.5" stroke-linecap="round" stroke-linejoin="round"/>
    </symbol>

    <symbol id="tiktok" width="24" height="24" viewBox="0 0 24 24" fill="none" xmlns="http://www.w3.org/2000/svg">
        <path fill-rule="evenodd" clip-rule="evenodd" d="M7.04741 2.33333C8.63852 2.15556 10.2993 2 12 2C13.7007 2 15.3615 2.15556 16.9526 2.33333C18.1619 2.472 19.2885 3.01685 20.148 3.87879C21.0075 4.74074 21.5492 5.86879 21.6844 7.07852C21.8548 8.66222 22 10.3111 22 12C22 13.6889 21.8548 15.3378 21.6844 16.9215C21.5492 18.1312 21.0075 19.2593 20.148 20.1212C19.2885 20.9832 18.1619 21.528 16.9526 21.6667C15.3615 21.8444 13.7007 22 12 22C10.2993 22 8.63852 21.8444 7.04741 21.6667C5.83807 21.528 4.71154 20.9832 3.85202 20.1212C2.99249 19.2593 2.45082 18.1312 2.31556 16.9215C2.14519 15.3378 2 13.6889 2 12C2 10.3111 2.14519 8.66222 2.31556 7.07852C2.45082 5.86879 2.99249 4.74074 3.85202 3.87879C4.71154 3.01685 5.83807 2.472 7.04741 2.33333ZM13.9733 5.89926C13.9222 5.67759 13.7912 5.48251 13.6054 5.35123C13.4196 5.21995 13.192 5.16166 12.966 5.18749C12.74 5.21331 12.5314 5.32144 12.38 5.49125C12.2286 5.66106 12.145 5.88065 12.1452 6.10815V14.6667C12.1452 15.1214 12.0103 15.566 11.7577 15.9441C11.505 16.3222 11.1459 16.6169 10.7258 16.7909C10.3057 16.9649 9.84338 17.0105 9.39736 16.9217C8.95135 16.833 8.54166 16.614 8.2201 16.2925C7.89855 15.9709 7.67956 15.5612 7.59085 15.1152C7.50213 14.6692 7.54766 14.2069 7.72169 13.7868C7.89571 13.3666 8.19041 13.0075 8.56853 12.7549C8.94664 12.5023 9.39118 12.3674 9.84593 12.3674C10.0915 12.3674 10.327 12.2699 10.5007 12.0962C10.6743 11.9226 10.7719 11.6871 10.7719 11.4415C10.7719 11.1959 10.6743 10.9604 10.5007 10.7868C10.327 10.6131 10.0915 10.5156 9.84593 10.5156C9.02491 10.5156 8.22234 10.759 7.53969 11.2151C6.85705 11.6713 6.32499 12.3196 6.0108 13.0781C5.69661 13.8366 5.61441 14.6713 5.77458 15.4765C5.93475 16.2817 6.3301 17.0214 6.91065 17.6019C7.49119 18.1825 8.23085 18.5778 9.03608 18.738C9.84132 18.8982 10.676 18.816 11.4345 18.5018C12.193 18.1876 12.8413 17.6555 13.2974 16.9729C13.7536 16.2903 13.997 15.4877 13.997 14.6667V9.4963C14.8859 10.2519 16.0326 10.6667 17.3778 10.6667C17.6233 10.6667 17.8589 10.5691 18.0325 10.3955C18.2062 10.2218 18.3037 9.98631 18.3037 9.74074C18.3037 9.49517 18.2062 9.25966 18.0325 9.08601C17.8589 8.91237 17.6233 8.81481 17.3778 8.81481C16.4 8.81481 15.6741 8.51259 15.1393 8.03704C14.5941 7.55111 14.1896 6.82815 13.9733 5.89926Z" fill="#808080"/>
    </symbol>

    <symbol id="instagram" width="24" height="24" viewBox="0 0 24 24" fill="none" xmlns="http://www.w3.org/2000/svg">
        <path d="M12 8.75C11.138 8.75 10.3114 9.09241 9.7019 9.7019C9.09241 10.3114 8.75 11.138 8.75 12C8.75 12.862 9.09241 13.6886 9.7019 14.2981C10.3114 14.9076 11.138 15.25 12 15.25C12.862 15.25 13.6886 14.9076 14.2981 14.2981C14.9076 13.6886 15.25 12.862 15.25 12C15.25 11.138 14.9076 10.3114 14.2981 9.7019C13.6886 9.09241 12.862 8.75 12 8.75Z" fill="#808080"/>
        <path fill-rule="evenodd" clip-rule="evenodd" d="M6.31029 2.31367C10.0919 1.89544 13.9082 1.89544 17.6898 2.31367C19.7557 2.54392 21.4213 4.16762 21.6639 6.23771C22.112 10.0658 22.112 13.933 21.6639 17.7611C21.4213 19.8312 19.7557 21.4549 17.6909 21.6863C13.9089 22.1046 10.0922 22.1046 6.31029 21.6863C4.24436 21.4549 2.57878 19.8312 2.33618 17.7622C1.88794 13.9338 1.88794 10.0662 2.33618 6.23771C2.57878 4.16762 4.24436 2.54392 6.31029 2.31367ZM17.4396 5.48288C17.151 5.48288 16.8743 5.59731 16.6703 5.80099C16.4663 6.00467 16.3516 6.28092 16.3516 6.56897C16.3516 6.85702 16.4663 7.13327 16.6703 7.33695C16.8743 7.54064 17.151 7.65506 17.4396 7.65506C17.7281 7.65506 18.0048 7.54064 18.2088 7.33695C18.4128 7.13327 18.5275 6.85702 18.5275 6.56897C18.5275 6.28092 18.4128 6.00467 18.2088 5.80099C18.0048 5.59731 17.7281 5.48288 17.4396 5.48288ZM6.83249 11.9994C6.83249 10.6312 7.37692 9.319 8.34603 8.35151C9.31513 7.38402 10.6295 6.84049 12 6.84049C13.3706 6.84049 14.6849 7.38402 15.654 8.35151C16.6231 9.319 17.1676 10.6312 17.1676 11.9994C17.1676 13.3677 16.6231 14.6799 15.654 15.6473C14.6849 16.6148 13.3706 17.1584 12 17.1584C10.6295 17.1584 9.31513 16.6148 8.34603 15.6473C7.37692 14.6799 6.83249 13.3677 6.83249 11.9994Z" fill="#808080"/>
    </symbol>

    <symbol id="linkedin" width="24" height="24" viewBox="0 0 24 24" fill="none" xmlns="http://www.w3.org/2000/svg">
        <path d="M17.303 2.25H6.697C5.51758 2.25 4.38647 2.71852 3.5525 3.5525C2.71852 4.38647 2.25 5.51758 2.25 6.697V17.303C2.25 18.4824 2.71852 19.6135 3.5525 20.4475C4.38647 21.2815 5.51758 21.75 6.697 21.75H17.303C18.4824 21.75 19.6135 21.2815 20.4475 20.4475C21.2815 19.6135 21.75 18.4824 21.75 17.303V6.697C21.75 5.51758 21.2815 4.38647 20.4475 3.5525C19.6135 2.71852 18.4824 2.25 17.303 2.25ZM8.843 17.992C8.84614 18.0464 8.83811 18.1009 8.81942 18.1521C8.80072 18.2034 8.77176 18.2502 8.7343 18.2898C8.69684 18.3294 8.65167 18.361 8.60158 18.3825C8.55149 18.404 8.49752 18.4151 8.443 18.415H6.663C6.55566 18.4124 6.45362 18.3678 6.37883 18.2907C6.30403 18.2137 6.26244 18.1104 6.263 18.003V10.6C6.26153 10.5466 6.27079 10.4934 6.29023 10.4435C6.30967 10.3937 6.3389 10.3483 6.3762 10.31C6.41349 10.2717 6.45808 10.2413 6.50734 10.2205C6.5566 10.1997 6.60953 10.189 6.663 10.189H8.443C8.49647 10.189 8.5494 10.1997 8.59866 10.2205C8.64792 10.2413 8.69251 10.2717 8.7298 10.31C8.7671 10.3483 8.79633 10.3937 8.81577 10.4435C8.83521 10.4934 8.84447 10.5466 8.843 10.6V17.992ZM7.52 8.632C7.32729 8.63056 7.13674 8.59117 6.95925 8.51608C6.78176 8.441 6.62079 8.33169 6.48554 8.1944C6.35029 8.05711 6.24341 7.89452 6.171 7.71593C6.09858 7.53733 6.06206 7.34621 6.0635 7.1535C6.06494 6.96079 6.10433 6.77024 6.17942 6.59275C6.2545 6.41526 6.36381 6.25429 6.5011 6.11904C6.63839 5.98379 6.80098 5.87691 6.97957 5.8045C7.15817 5.73208 7.34929 5.69556 7.542 5.697C7.92452 5.70944 8.28703 5.87087 8.55219 6.14686C8.81734 6.42284 8.96415 6.79152 8.96128 7.17423C8.9584 7.55694 8.80609 7.92337 8.53682 8.19535C8.26755 8.46732 7.90266 8.6233 7.52 8.63M18.337 17.98C18.3365 18.081 18.2969 18.178 18.2264 18.2503C18.1558 18.3227 18.06 18.3649 17.959 18.368H16.08C15.9788 18.3649 15.8828 18.3226 15.8123 18.25C15.7418 18.1774 15.7022 18.0802 15.702 17.979V14.555C15.702 14.044 15.858 12.332 14.346 12.332C13.167 12.332 12.934 13.532 12.889 14.066V18.057C12.889 18.1584 12.8496 18.2558 12.779 18.3286C12.7085 18.4014 12.6123 18.4439 12.511 18.447H10.688C10.5847 18.4467 10.4858 18.4055 10.4129 18.3324C10.34 18.2593 10.299 18.1603 10.299 18.057V10.564C10.3021 10.4627 10.3446 10.3665 10.4174 10.296C10.4902 10.2254 10.5876 10.186 10.689 10.186H12.511C12.6124 10.186 12.7098 10.2254 12.7826 10.296C12.8554 10.3665 12.8979 10.4627 12.901 10.564V11.209C13.167 10.8196 13.5343 10.5103 13.9633 10.3143C14.3922 10.1183 14.8665 10.0432 15.335 10.097C18.37 10.097 18.359 12.932 18.359 14.544L18.337 17.98Z" fill="#808080"/>
    </symbol>

    <symbol id="youtube" width="24" height="24" viewBox="0 0 24 24" fill="none" xmlns="http://www.w3.org/2000/svg">
        <path d="M23 9.71005C23.0495 8.27871 22.7364 6.85807 22.09 5.58005C21.6514 5.05565 21.0427 4.70176 20.37 4.58005C17.5876 4.32689 14.7935 4.22341 12 4.27005C9.21665 4.22305 6.43277 4.32318 3.66 4.57005C3.11182 4.66977 2.60452 4.9269 2.2 5.31005C1.3 6.14005 1.2 7.56005 1.1 8.76005C0.954033 10.9176 0.954033 13.0825 1.1 15.2401C1.1293 15.9154 1.22986 16.5858 1.4 17.2401C1.52057 17.7451 1.76452 18.2124 2.11 18.6001C2.51727 19.0035 3.03638 19.2753 3.6 19.3801C5.75586 19.6468 7.92821 19.7571 10.1 19.7101C13.6 19.7601 16.67 19.7101 20.3 19.4301C20.8771 19.3305 21.4104 19.0586 21.83 18.6501C22.1097 18.3697 22.3187 18.027 22.44 17.6501C22.7973 16.5526 22.9729 15.4041 22.96 14.2501C23 13.6901 23 10.3101 23 9.71005ZM9.74 14.8501V8.66005L15.66 11.7701C14 12.6901 11.81 13.7301 9.74 14.8501Z" fill="#808080"/>
    </symbol>

    <symbol id="email" width="24" height="24" viewBox="0 0 24 24" fill="none" xmlns="http://www.w3.org/2000/svg">
        <g opacity="0.5">
        <path d="M20 4H4C2.9 4 2.01 4.9 2.01 6L2 18C2 19.1 2.9 20 4 20H20C21.1 20 22 19.1 22 18V6C22 4.9 21.1 4 20 4ZM20 8L12 13L4 8V6L12 11L20 6V8Z" fill="white"/>
        </g>
    </symbol>

    <symbol id="phone" width="24" height="24" viewBox="0 0 24 24" fill="none" xmlns="http://www.w3.org/2000/svg">
        <g opacity="0.5">
        <path d="M16.556 12.906L16.101 13.359C16.101 13.359 15.018 14.435 12.063 11.497C9.108 8.55898 10.191 7.48298 10.191 7.48298L10.477 7.19698C11.184 6.49498 11.251 5.36698 10.634 4.54298L9.374 2.85998C8.61 1.83998 7.135 1.70498 6.26 2.57498L4.69 4.13498C4.257 4.56698 3.967 5.12498 4.002 5.74498C4.092 7.33198 4.81 10.745 8.814 14.727C13.061 18.949 17.046 19.117 18.675 18.965C19.191 18.917 19.639 18.655 20 18.295L21.42 16.883C22.38 15.93 22.11 14.295 20.882 13.628L18.972 12.589C18.166 12.152 17.186 12.28 16.556 12.906Z" fill="white"/>
        </g>
    </symbol>

    <symbol id="whatsapp" width="24" height="24" viewBox="0 0 24 24" fill="none" xmlns="http://www.w3.org/2000/svg">
        <g clip-path="url(#clip0_259_3230)">
        <path d="M0.512151 11.8563C0.511588 13.8728 1.04259 15.8417 2.05228 17.5771L0.415588 23.5066L6.53109 21.9156C8.22256 22.8292 10.1177 23.308 12.0436 23.3081H12.0487C18.4063 23.3081 23.5816 18.1748 23.5843 11.8653C23.5855 8.80792 22.3867 5.93295 20.2085 3.76997C18.0307 1.60718 15.1342 0.415458 12.0482 0.414062C5.68978 0.414062 0.51487 5.54709 0.512245 11.8563" fill="#808080"/>
        <path d="M0.100313 11.8527C0.0996563 13.9417 0.649687 15.981 1.69537 17.7786L0 23.9207L6.33478 22.2726C8.08022 23.2168 10.0454 23.7147 12.0451 23.7154H12.0502C18.636 23.7154 23.9972 18.3975 24 11.8621C24.0011 8.69488 22.7591 5.71656 20.5031 3.47609C18.2468 1.23591 15.2468 0.00130233 12.0502 0C5.46337 0 0.102938 5.31721 0.100313 11.8527ZM3.87291 17.469L3.63637 17.0965C2.64206 15.5277 2.11725 13.7149 2.118 11.8534C2.12006 6.4213 6.57544 2.00186 12.054 2.00186C14.7071 2.00298 17.2005 3.02921 19.0759 4.89116C20.9512 6.7533 21.9831 9.22865 21.9824 11.8614C21.98 17.2935 17.5245 21.7135 12.0502 21.7135H12.0463C10.2638 21.7126 8.51569 21.2376 6.99113 20.34L6.62831 20.1265L2.86912 21.1045L3.87291 17.469Z" fill="#BEBEBE"/>
        <path d="M9.06355 6.89771C8.83987 6.4044 8.60446 6.39445 8.39174 6.3858C8.21755 6.37836 8.01843 6.37892 7.81949 6.37892C7.62037 6.37892 7.29683 6.45324 7.02337 6.74952C6.74962 7.04608 5.97824 7.76273 5.97824 9.22031C5.97824 10.6779 7.04821 12.0866 7.19737 12.2845C7.34671 12.482 9.26296 15.5689 12.2978 16.7564C14.8201 17.7433 15.3334 17.547 15.8808 17.4975C16.4283 17.4482 17.6474 16.7811 17.8961 16.0892C18.145 15.3975 18.145 14.8046 18.0704 14.6807C17.9958 14.5572 17.7966 14.4831 17.4981 14.335C17.1995 14.1869 15.7314 13.4701 15.4578 13.3712C15.184 13.2724 14.985 13.2231 14.7859 13.5198C14.5867 13.8159 14.015 14.4831 13.8407 14.6807C13.6666 14.8787 13.4923 14.9034 13.1938 14.7552C12.895 14.6065 11.9334 14.2941 10.7926 13.2849C9.90496 12.4996 9.30571 11.5298 9.13152 11.2331C8.95733 10.937 9.11287 10.7764 9.26258 10.6288C9.39674 10.496 9.56127 10.2828 9.71071 10.1099C9.85958 9.93687 9.90927 9.81343 10.0088 9.61585C10.1085 9.41808 10.0586 9.24506 9.98408 9.09687C9.90927 8.94868 9.32905 7.48347 9.06355 6.89771Z" fill="#BEBEBE"/>
        </g>
        <defs>
        <clipPath id="clip0_259_3230">
        <rect width="24" height="24" fill="white"/>
        </clipPath>
        </defs>
    </symbol>

    <symbol id="telegram" width="24" height="24" viewBox="0 0 24 24" fill="none" xmlns="http://www.w3.org/2000/svg">
        <g clip-path="url(#clip0_259_3219)">
        <path d="M12 0C8.81812 0 5.76375 1.26506 3.51562 3.51469C1.2652 5.76522 0.000643966 8.81734 0 12C0 15.1813 1.26562 18.2357 3.51562 20.4853C5.76375 22.7349 8.81812 24 12 24C15.1819 24 18.2362 22.7349 20.4844 20.4853C22.7344 18.2357 24 15.1813 24 12C24 8.81869 22.7344 5.76431 20.4844 3.51469C18.2362 1.26506 15.1819 0 12 0Z" fill="#808080"/>
        <path d="M5.43187 11.873C8.93062 10.349 11.2631 9.3443 12.4294 8.8588C15.7631 7.47261 16.455 7.23186 16.9069 7.2237C17.0062 7.22211 17.2275 7.24667 17.3719 7.36339C17.4919 7.46183 17.5256 7.59495 17.5425 7.68842C17.5575 7.7818 17.5781 7.99461 17.5612 8.16074C17.3812 10.0582 16.5994 14.6629 16.2019 16.7882C16.035 17.6874 15.7031 17.9889 15.3825 18.0184C14.685 18.0825 14.1562 17.5579 13.4812 17.1155C12.4256 16.4231 11.8294 15.9922 10.8037 15.3167C9.61875 14.5359 10.3875 14.1067 11.0625 13.4055C11.2387 13.2219 14.31 10.4291 14.3681 10.1758C14.3756 10.1441 14.3831 10.026 14.3119 9.96373C14.2425 9.9013 14.1394 9.92267 14.0644 9.93955C13.9575 9.96355 12.2719 11.0788 9.00187 13.2851C8.52375 13.614 8.09062 13.7743 7.70062 13.7659C7.27312 13.7567 6.44812 13.5236 5.835 13.3245C5.085 13.0802 4.48687 12.951 4.53937 12.536C4.56562 12.32 4.86375 12.099 5.43187 11.873Z" fill="#BEBEBE"/>
        </g>
        <defs>
        <clipPath id="clip0_259_3219">
        <rect width="24" height="24" fill="white"/>
        </clipPath>
        </defs>
    </symbol>

</svg>